<?xml version="1.0" standalone="no"?>
<!DOCTYPE svg PUBLIC "-//W3C//DTD SVG 20010904//EN"
 "http://www.w3.org/TR/2001/REC-SVG-20010904/DTD/svg10.dtd">
<svg version="1.0" xmlns="http://www.w3.org/2000/svg"
 width="700.000000pt" height="700.000000pt" viewBox="0 0 700.000000 700.000000"
 preserveAspectRatio="xMidYMid meet">
<metadata>
Created by potrace 1.11, written by Peter Selinger 2001-2013
</metadata>
<g transform="translate(0.000000,700.000000) scale(0.100000,-0.100000)"
fill="#000000" stroke="none">
<path d="M3038 6925 c-2 -2 -41 -6 -88 -9 -97 -7 -155 -13 -199 -21 -17 -3
-46 -7 -63 -10 -533 -85 -1104 -335 -1539 -674 -38 -30 -69 -57 -69 -60 0 -3
44 -30 98 -60 53 -30 194 -109 312 -177 118 -67 238 -135 266 -151 233 -130
334 -189 334 -193 0 -3 -71 -40 -158 -82 -414 -202 -758 -485 -1054 -868 -147
-191 -288 -438 -377 -664 -64 -160 -131 -407 -155 -571 -4 -23 -8 -50 -10 -61
-14 -72 -21 -208 -21 -409 0 -253 7 -337 41 -525 94 -517 361 -1038 734 -1434
293 -310 623 -538 1025 -708 68 -29 317 -114 359 -123 281 -58 359 -70 540
-80 121 -8 3651 -9 3663 -2 10 6 9 3827 -1 3947 -4 47 -9 101 -12 120 -2 19
-7 51 -9 70 -4 36 -14 100 -21 135 -2 11 -7 34 -10 50 -17 97 -77 301 -129
440 -112 303 -354 700 -584 959 -46 51 -265 270 -297 296 -175 142 -241 192
-348 264 -300 202 -589 337 -981 459 -100 31 -290 75 -395 92 -19 3 -46 8 -60
10 -27 5 -77 12 -155 20 -27 3 -70 8 -95 11 -51 7 -536 15 -542 9z m1946 -853
c8 -15 13 -41 11 -57 -20 -211 -62 -332 -152 -435 -12 -14 -49 -45 -82 -70
-33 -25 -64 -54 -69 -66 -13 -28 6 -72 67 -148 143 -180 263 -395 330 -589 22
-64 40 -121 40 -125 0 -7 5 -37 16 -92 25 -123 25 -375 0 -520 -41 -242 -148
-485 -301 -680 -52 -67 -239 -243 -314 -296 -187 -131 -402 -235 -515 -249
-83 -11 -109 -48 -93 -134 11 -62 52 -101 119 -115 13 -3 35 -8 49 -11 63 -15
147 -12 290 11 19 3 107 7 195 9 101 2 185 9 228 19 86 20 197 71 284 130 81
55 157 121 128 111 -11 -4 -27 -8 -35 -10 -8 -2 -69 -22 -135 -44 -181 -63
-271 -84 -364 -85 -82 -2 -82 50 1 132 108 108 533 288 898 382 121 31 122 31
148 14 24 -16 24 -19 19 -98 -12 -170 -112 -354 -272 -504 -115 -109 -228
-158 -425 -188 -19 -3 -46 -7 -60 -10 -14 -2 -119 -5 -234 -5 -188 -1 -216 -4
-284 -25 -95 -29 -112 -44 -49 -44 124 0 283 -59 384 -142 73 -61 144 -146
237 -288 227 -344 256 -391 266 -437 8 -32 5 -39 -20 -64 -16 -16 -34 -29 -42
-30 -7 0 -22 -3 -33 -5 -112 -26 -265 -24 -376 5 -285 73 -480 299 -549 633
-14 69 0 108 42 119 22 6 41 -1 95 -33 37 -23 93 -63 124 -90 66 -56 135 -89
178 -86 l29 2 -18 26 c-22 31 -124 136 -165 170 -54 46 -153 100 -225 125
-192 65 -416 51 -868 -56 -143 -34 -160 -35 -188 -11 -48 38 -53 71 -24 163
19 62 21 65 89 107 39 24 73 52 76 62 13 40 -46 100 -97 100 -44 0 -92 -57
-192 -226 -263 -445 -478 -798 -531 -873 -124 -174 -304 -332 -484 -425 -75
-39 -93 -45 -115 -36 -41 15 -34 56 36 188 191 364 241 481 220 519 -9 16 -16
12 -57 -32 -26 -28 -89 -115 -142 -195 -52 -80 -104 -157 -114 -172 -10 -15
-19 -29 -19 -32 0 -8 -163 -252 -198 -295 -74 -91 -169 -126 -219 -79 -35 33
-32 46 49 188 14 25 52 95 84 155 32 61 63 118 69 127 5 9 19 34 31 55 12 21
86 153 166 293 258 454 329 584 451 829 72 145 110 210 132 226 16 13 68 35
115 50 431 133 710 306 903 559 l60 79 -47 -6 c-54 -8 -89 -25 -131 -64 -41
-38 -109 -93 -171 -136 -65 -45 -292 -177 -304 -177 -6 0 -7 27 -4 68 4 37 7
74 8 82 0 8 -3 17 -9 20 -5 3 -31 -44 -57 -104 -27 -60 -56 -115 -66 -122 -36
-27 -515 -164 -572 -164 -31 0 -70 44 -70 79 0 40 166 436 293 701 109 225
284 510 393 640 136 161 236 261 394 391 76 63 96 84 109 120 10 28 -3 66 -31
92 -19 17 -76 57 -82 57 -3 0 -30 16 -60 35 -56 36 -86 68 -86 94 0 8 44 58
98 110 142 138 231 255 356 470 30 50 62 91 80 102 54 33 320 114 436 134 186
31 337 58 395 71 86 19 103 23 135 29 43 8 192 61 260 93 85 40 115 41 134 4z"/>
<path d="M3750 5273 c-8 -3 -40 -30 -71 -60 -31 -30 -73 -61 -95 -68 -31 -11
-34 -14 -15 -15 24 0 24 0 5 -15 -10 -8 -14 -15 -7 -15 6 0 15 5 18 10 8 13
68 13 136 0 67 -13 100 -6 133 26 24 25 24 26 9 77 -8 29 -16 53 -17 55 -6 6
-82 10 -96 5z m60 -78 c-1 -13 -64 -35 -113 -41 -21 -2 -46 -8 -57 -14 -10 -5
-27 -10 -37 -9 -10 0 0 7 22 15 22 8 49 19 60 24 67 34 127 45 125 25z"/>
<path d="M3578 2638 c-21 -16 -23 -33 -14 -80 10 -46 46 -72 88 -64 43 8 56
26 51 71 -6 67 -78 109 -125 73z"/>
</g>
</svg>
