<svg xmlns="http://www.w3.org/2000/svg" viewBox="0 0 178.84 179.202"><g clip-rule="evenodd"><path stroke="#F05B5B" stroke-width="4" stroke-miterlimit="10" fill="none" d="M43.738 106.444l46.182-78.185 45.778 78.185-26.871-17.285-20.257 17.285-13.505-13.367z"/><path fill-rule="evenodd" fill="#F05B5B" stroke="#F05B5B" stroke-miterlimit="10" d="M16.487 146.333l-.007-144.537.001-1.292 1.295-.004 144.535.007 1.289-.003-.002 1.291.008 144.538-.006 1.291-1.289.002-144.537-.008-1.293.004.006-1.289zm2.586-143.236l-.002 141.935 141.943.006-.004-141.946-141.937.005z"/><g fill-rule="evenodd"><path fill="#3E414C" d="M7.283 161.559h164.299v4.24h-164.299zM89.106 179.202c-8.579 0-15.527-6.953-15.527-15.529 0-8.57 6.948-15.516 15.527-15.516 8.586 0 15.529 6.945 15.529 15.516 0 8.576-6.943 15.529-15.529 15.529z"/><path fill="#E0E6DF" d="M89.108 169.92c-3.446 0-6.245-2.793-6.245-6.246 0-3.445 2.799-6.236 6.245-6.236 3.447 0 6.246 2.791 6.246 6.236 0 3.453-2.799 6.246-6.246 6.246z"/><path fill="#3E414C" d="M172.766 169.752c-3.354 0-6.078-2.719-6.078-6.078 0-3.354 2.725-6.07 6.078-6.07 3.35 0 6.074 2.717 6.074 6.07 0 3.36-2.724 6.078-6.074 6.078zM6.078 169.752c-3.354 0-6.078-2.719-6.078-6.078 0-3.354 2.725-6.07 6.078-6.07 3.354 0 6.074 2.717 6.074 6.07 0 3.36-2.719 6.078-6.074 6.078z"/></g></g></svg>