<svg xmlns="http://www.w3.org/2000/svg" viewBox="0 0 103.408 51.566">
    <path fill-rule="evenodd" clip-rule="evenodd" d="M61.671 46.056c-2.692.48-5.189.439-7.417-.098 1.531-.032 3.106-.137 4.727-.313 4.883-.531 8.889-1.746 12.08-3.407-2.645 1.824-5.794 3.176-9.39 3.818zm-7.714 2.54c-1.736-.75-3.225-1.694-4.483-2.779l.606.047c3.251 1.846 7.299 2.42 11.844 1.61 2.201-.393 4.243-1.037 6.117-1.886-2.272 1.126-4.913 2.027-7.945 2.615-2.334.453-4.368.549-6.139.393zm49.451-40.03l-.842-.566-5.424 8.082-1.01-.678-9.494 14.143.834.559c-10.302 14.755-19.829 21.265-29.038 19.816.635-.077 1.28-.179 1.937-.305 11.88-2.307 18.108-9.217 19.779-16.077 1.743-3.85 2.365-8.006 1.725-11.834-1.165-6.96-7.03-13.674-19.999-11.649-9.522 1.489-17.104 7.473-20.282 16.008-2.257 6.063-1.927 12.324.775 16.953-3.762-1.161-7.078-2.975-9.918-5.448-4.227-3.682-6.766-8.259-8.3-12.521l-1.58-7.341c2.53-.787 3.983-3.448 3.244-6.007-.746-2.592-3.453-4.087-6.044-3.34-2.591.747-4.085 3.454-3.339 6.045.593 2.055 2.418 3.399 4.439 3.506.267 1.722.684 3.708 1.331 5.825l.398 1.854.205-.044c1.604 4.453 4.264 9.244 8.701 13.109.382.332.776.65 1.174.961-5.072-2.295-10.09-5.57-15.012-9.816l.104-.11-5.597-5.354c1.593-2.167 1.134-5.217-1.032-6.816-2.169-1.604-5.227-1.146-6.829 1.023-1.604 2.169-1.146 5.228 1.022 6.83 1.717 1.269 3.978 1.229 5.646.091 1.71 1.761 3.433 3.405 5.169 4.933l.494.473.025-.027c6.156 5.322 12.47 9.183 18.872 11.513.411.149.823.292 1.234.429l.148-.442c2.08 1.085 4.321 1.931 6.727 2.528l.179.215c1.552 1.83 3.511 3.174 5.795 4.005 1.21.439 2.513.737 3.894.888.681.288 1.397.549 2.148.777 10.615 3.252 21.408-3.236 32.995-19.834l-.591-.412 1.432.961 9.492-14.144-1.01-.678 5.423-8.084zm-41.309 2.914c10.132-1.583 16.996 2.328 18.356 10.464.156.933.231 1.888.229 2.853-.996-4.627-4.427-9.117-10.449-11.31-2.579-.938-5.635-1.456-9.178-1.382-.896.019-1.77.089-2.621.208 1.18-.358 2.403-.637 3.663-.833zm-1.011 2.065c3.338-.069 6.208.416 8.624 1.296 2.511.913 4.528 2.252 6.067 3.835-2.902-2.687-7.136-4.518-12.77-4.61-7.686-.125-13.22 3.115-16.59 7.602 2.042-3.431 6.31-7.947 14.669-8.123zm-16.615 30.039c-3.181-4.241-3.81-10.748-1.588-16.856-.503 2.224-.631 4.503-.391 6.704.005 3.583 1.015 7.28 3.24 10.42-.425-.082-.846-.172-1.261-.268zm-.536-10.51c.015-.82.086-1.631.211-2.426 1.214-7.67 7.509-15.327 18.839-15.143 10.37.165 15.579 6.659 16.139 13.017.07.791.07 1.601-.001 2.421-1.635 6.148-8.022 11.934-20.3 13.27-2.918.317-5.685.396-8.295.234-1.366-.82-2.566-1.897-3.568-3.222-1.713-2.26-2.732-5.127-3.025-8.151zm2.197 12.317c.322.055.645.107.972.154.557.604 1.168 1.18 1.836 1.718-1.111-.538-2.039-1.189-2.808-1.872z" opacity=".15" />
    <g clip-rule="evenodd">
        <path fill-rule="evenodd" fill="#F3A50D" d="M83.281 21.545l9.492-14.142 2.862 1.921-9.492 14.142zM89.376 14.646l9.832-14.649.842.565-9.832 14.649z" />
        <path stroke="#fff" stroke-width="1.44" stroke-miterlimit="22.926" d="M84.715 22.507c-7.711 11.048-19.15 23.553-32.193 19.558-20.214-6.193-15.07-35.642 7.121-35.279 22.191.362 23.797 28.967-2.766 34.123s-25.713-33.848 1.755-38.141c27.467-4.293 24.297 31.625-.19 35.996-24.488 4.369-25.091-33.428-.724-33.94 24.366-.51 27.55 28.869-2.171 32.104-29.721 3.233-37.395-18.838-37.779-31.874M33.646 34.1c-11.21-3.731-20.985-11.868-28.763-20.654" fill="none" />
        <circle fill-rule="evenodd" fill="#F3A50D" cx="4.884" cy="13.445" r="4.883" />
        <path fill-rule="evenodd" fill="#F3A50D" d="M6.458 16.332l1.127-1.178 6.831 6.536-1.127 1.178z" />
        <circle fill-rule="evenodd" fill="#F3A50D" cx="17.768" cy="5.054" r="4.883" />
        <path fill-rule="evenodd" fill="#F3A50D" d="M17.257 8.346l1.593-.343 1.988 9.242-1.593.343z" />
    </g>
</svg>