<svg xmlns="http://www.w3.org/2000/svg" width="576.268" height="576.25" viewBox="0 0 576.268 576.25">
    <path fill-rule="evenodd" clip-rule="evenodd" fill="#fff" d="M576.185 288.11c.005 94.627-.007 189.255.06 283.882.002 2.991-.314 4.261-3.926 4.259-189.255-.112-378.509-.112-567.764-.026-3.504.002-4.558-.676-4.555-4.409.104-179.38.091-358.759.091-538.138 0-10 .117-20.003-.084-29.999-.061-3.012.857-3.682 3.746-3.679 89.751.078 179.504.069 269.256.07 99.628.002 199.255.015 298.882-.066 3.264-.002 4.382.614 4.377 4.199-.11 94.635-.088 189.272-.083 283.907zm-288.268 279.121v-.025c92.117 0 184.234-.012 276.353.06 2.622.003 3.001-.927 2.998-3.222-.046-35.122.007-70.244.004-105.366-.009-74.118-.047-148.237-.054-222.356-.007-74.368-.014-148.737.095-223.105.006-3.437-.937-4.282-4.309-4.273-44.245.111-88.491.07-132.737.073l-211.829.019c-68.744.003-137.488.013-206.232-.072-2.761-.003-3.211.886-3.208 3.395.063 62.745.038 125.489.039 188.234 0 58.62.017 117.24.018 175.86 0 62.37.01 124.739-.079 187.108-.004 2.933.785 3.726 3.714 3.715 29.123-.101 58.245-.048 87.368-.047 62.619.004 125.239.002 187.859.002z" />
    <path fill-rule="evenodd" clip-rule="evenodd" fill="#f12ff" d="M288.136 540.11h-199.861c-16.249 0-32.499-.079-48.746.075-2.942.027-3.448-.941-3.444-3.622.087-73.62.106-147.24.106-220.86 0-69.87-.035-139.74-.048-209.611-.004-21.999.101-43.998-.073-65.995-.027-3.47 1.069-4.026 4.215-4.022 75.87.085 151.74.07 227.61.066 85.62-.004 171.239-.014 256.858-.022 3.875 0 7.758.155 11.621-.052 2.783-.148 3.849.469 3.836 3.608-.133 34.248-.103 68.496-.101 102.744l.021 256.107c.002 45.872-.041 91.744.046 137.616.005 2.987-.578 4.023-3.82 4.02-82.739-.093-165.479-.073-248.219-.073l-.001.021zm.01-8.899v-.022c79.612 0 159.224-.021 238.835.073 3.313.004 4.326-.647 4.319-4.191-.126-60.742-.094-121.484-.091-182.227.005-98.237.015-196.475.019-294.712.001-5.098-.012-5.11-5.191-5.11-78.364.005-156.729.017-235.095.019-80.864.003-161.729.009-242.594-.063-2.564-.002-3.359.536-3.356 3.248.074 74.615.055 149.23.047 223.845-.005 59.368-.018 118.736-.02 178.103-.001 25.747.075 51.493-.051 77.239-.016 3.177.909 3.941 3.96 3.865 8.369-.208 16.746-.068 25.12-.068 71.366.001 142.732.001 214.098.001z" />
    <path fill-rule="evenodd" clip-rule="evenodd" fill="#f32ff" d="M288.577 207.164c49.476 0 98.95.03 148.425-.07 3.141-.006 4.372.482 4.192 3.996-.33 6.479-.217 12.993-.013 19.483.088 2.767-.633 3.557-3.503 3.548-36.606-.108-73.213-.076-109.819-.073-62.343.004-124.687.013-187.031.022-5.628 0-5.637.004-5.653-5.442-.018-5.873.16-11.752-.089-17.614-.133-3.128.838-3.952 3.942-3.938 28.36.12 56.721.075 85.083.076 21.489.001 42.978 0 64.466 0v.012z" />
    <path fill-rule="evenodd" clip-rule="evenodd" fill="#f54ff" d="M288.557 279.174c49.474 0 98.949.045 148.423-.093 3.604-.01 4.318 1.079 4.191 4.37-.247 6.362-.191 12.745.008 19.111.086 2.732-.576 3.58-3.479 3.571-36.856-.111-73.713-.078-110.57-.075-61.968.004-123.937.012-185.906.023-6.04 0-6.047.015-6.061-6.173-.013-5.623.167-11.253-.076-16.864-.135-3.099.787-3.974 3.92-3.961 28.36.123 56.721.076 85.083.077 21.489.001 42.978 0 64.467 0v.014z" />
    <path fill-rule="evenodd" clip-rule="evenodd" fill="#f12ff" d="M288.532 351.184c49.475 0 98.949.043 148.424-.09 3.553-.01 4.354 1 4.219 4.343-.26 6.486-.152 12.992-.009 19.486.051 2.35-.494 3.215-3.066 3.211-52.224-.079-104.448-.066-156.672-.064-47.101.002-94.202.021-141.304.008-5.939-.003-4.874.443-4.936-5.01-.067-5.997.134-12.001-.1-17.989-.12-3.058.744-4.004 3.895-3.984 21.489.135 42.978.071 64.468.071h85.081v.018z" />
</svg>