<svg xmlns="http://www.w3.org/2000/svg" viewBox="0 0 178.84 234.681"><g fill-rule="evenodd" clip-rule="evenodd"><path fill="#3E414C" d="M7.283 217.039h164.299v4.24h-164.299zM89.106 234.681c-8.579 0-15.527-6.953-15.527-15.529 0-8.57 6.948-15.516 15.527-15.516 8.585 0 15.529 6.945 15.529 15.516 0 8.576-6.943 15.529-15.529 15.529z"/><path fill="#E0E6DF" d="M89.108 225.4c-3.446 0-6.245-2.793-6.245-6.246 0-3.445 2.799-6.236 6.245-6.236 3.447 0 6.246 2.791 6.246 6.236 0 3.453-2.799 6.246-6.246 6.246z"/><path fill="#3E414C" d="M172.766 225.232c-3.354 0-6.078-2.719-6.078-6.078 0-3.354 2.725-6.07 6.078-6.07 3.35 0 6.074 2.717 6.074 6.07 0 3.359-2.724 6.078-6.074 6.078zM6.078 225.232c-3.354 0-6.078-2.719-6.078-6.078 0-3.354 2.725-6.07 6.078-6.07 3.354 0 6.074 2.717 6.074 6.07 0 3.359-2.719 6.078-6.074 6.078z"/></g><g stroke="#F05B5B" stroke-miterlimit="10" fill="none"><path clip-rule="evenodd" stroke-width="4" d="M136 201.57h-92.273c-4.895 0-8.863-3.967-8.863-8.863v-181.844c-.001-4.895 3.968-8.863 8.863-8.863h92.273c4.895 0 8.863 3.968 8.863 8.863v181.843c.001 4.897-3.968 8.864-8.863 8.864zM34.863 31.226h110v137.5h-110z"/><circle clip-rule="evenodd" stroke-width="2" cx="89.864" cy="185.496" r="7.332"/><path stroke-width="4" d="M80.738 17.226h17.251"/></g></svg>