<svg xmlns="http://www.w3.org/2000/svg" viewBox="0 0 161.201 149.005"><g clip-rule="evenodd"><path opacity=".15" fill-rule="evenodd" d="M35.673 131.122l84.918 17.521 1.651.341.105.021 1.546-7.493.128-.617 4.504.929c.321.066.64-.143.706-.465.066-.322-.143-.64-.465-.705l-4.504-.929.242-1.171 4.504.929c.321.066.639-.143.705-.464.066-.322-.143-.64-.464-.706l-4.505-.929.801-3.876.125-.608 4.504.929c.322.066.64-.143.706-.464v-.001c.066-.321-.143-.639-.464-.705l-4.505-.929.241-1.171 4.505.929c.321.066.64-.143.706-.464v-.001c.066-.321-.143-.639-.465-.705l-4.504-.929.802-3.886.124-.598 4.504.929c.321.066.639-.143.705-.464.066-.322-.143-.64-.464-.706l-4.505-.929.242-1.171 4.504.929c.322.067.64-.143.706-.464.066-.322-.143-.64-.464-.706l-4.505-.929.804-3.895.121-.589 4.505.929c.321.066.64-.143.706-.464.066-.322-.143-.64-.465-.706l-4.504-.929.241-1.17 4.505.93c.321.065.639-.143.705-.465s-.143-.64-.464-.706l-4.505-.929.807-3.905.119-.58 4.504.929c.322.066.64-.143.706-.464.066-.322-.144-.64-.464-.706l-4.505-.929.241-1.17 4.505.929c.321.066.64-.143.706-.465s-.143-.639-.465-.706l-4.504-.929.808-3.915.117-.569 4.505.929c.321.066.639-.143.705-.465s-.143-.64-.465-.706l-4.504-.929.242-1.17 4.504.929c.322.066.64-.143.705-.465.066-.321-.143-.64-.463-.705l-4.505-.929.81-3.924.115-.56 4.504.929c.322.066.641-.143.707-.465s-.143-.64-.465-.706l-4.504-.929.241-1.17 4.505.929c.321.066.639-.143.705-.464v-.001c.066-.321-.143-.639-.465-.705l-4.504-.929.813-3.934.113-.55 4.504.929c.322.066.639-.143.705-.465h.001c.065-.321-.143-.639-.464-.705l-4.505-.929.241-1.171 4.504.929c.322.066.64-.143.706-.464.067-.322-.143-.64-.464-.706l-4.504-.929.813-3.944.111-.541 4.506.93c.32.066.639-.143.705-.464.066-.321-.143-.639-.465-.705l-4.504-.93.242-1.17 4.504.929c.321.066.639-.143.705-.464.066-.322-.143-.64-.464-.706l-4.505-.929.816-3.954.109-.531 4.504.929c.322.066.641-.143.707-.464.065-.322-.143-.64-.465-.706l-4.504-.929.24-1.171 4.505.929c.321.066.64-.143.706-.464.066-.322-.143-.64-.465-.706l-4.504-.929.817-3.962.107-.521 4.505.93c.322.065.639-.143.705-.465s-.143-.64-.464-.706l-4.505-.93.242-1.169 4.504.929c.322.066.64-.143.706-.465.066-.321-.143-.64-.464-.706l-4.504-.93.818-3.971.106-.513 4.504.929c.321.066.64-.143.706-.464.066-.322-.143-.64-.465-.706l-4.504-.929.242-1.17 4.504.929c.321.066.639-.143.705-.465s-.143-.639-.464-.705l-4.505-.93.926-4.483 4.504.929c.322.066.64-.143.706-.465.066-.321-.143-.639-.464-.705l-4.504-.929.24-1.171 4.505.929c.321.066.64-.143.706-.464.066-.321-.143-.639-.465-.705l-4.504-.929.926-4.484 4.504.929c.321.066.639-.143.705-.465.066-.321-.143-.64-.464-.706l-4.505-.929.242-1.17 4.504.929c.322.066.64-.143.706-.464.066-.322-.143-.64-.464-.706l-4.505-.929 1.647-7.986-5.777-1.192-1.651-.341-1.651-.341-1.652-.341-1.65-.341-1.652-.341-1.651-.341-1.651-.341-1.652-.341-1.651-.341-1.651-.341-1.652-.341-1.651-.341-1.651-.341-59.422-12.26-25.491 123.542zm106.612-94.818l.358.074-.011.054c-.066.322-.288.574-.571.693-.173.073-.369.098-.567.057-.52-.107-.856-.62-.749-1.14l.746-3.619c.066-.321.288-.573.57-.692.174-.073.371-.098.569-.057.519.107.856.62.749 1.139l-.012.055-.359-.074c-.321-.066-.639.143-.705.464v.001c-.066.321.143.639.465.705l.358.074-.241 1.17-.359-.074c-.322-.066-.639.143-.705.465s.142.639.464.705zm-1.649 7.995l.359.074-.014.063c-.066.321-.289.573-.571.693-.173.073-.37.097-.567.056-.52-.107-.857-.619-.75-1.139l.747-3.619c.065-.321.288-.573.57-.692.174-.074.371-.098.569-.057.52.106.855.619.748 1.139l-.009.045-.359-.074c-.321-.067-.64.142-.705.464-.067.322.142.64.464.706l.359.074-.242 1.171-.358-.074c-.322-.067-.64.142-.706.464-.067.322.142.64.465.706zm-1.651 7.994l.359.074-.016.074c-.066.321-.287.573-.57.692-.174.073-.37.098-.568.057-.52-.106-.856-.62-.749-1.139l.747-3.62c.066-.321.287-.572.57-.692.174-.073.371-.097.568-.057.52.107.856.62.749 1.139l-.007.035-.359-.074c-.322-.065-.639.143-.705.465s.142.64.464.706l.358.074-.24 1.17-.359-.074c-.322-.066-.64.143-.706.465-.066.322.142.639.464.705zm-1.649 7.997l.359.074-.017.082c-.067.322-.289.573-.572.693-.174.073-.369.098-.567.057-.52-.107-.856-.62-.749-1.14l.746-3.619c.066-.321.289-.573.57-.692.174-.074.371-.098.569-.057.519.107.856.619.749 1.139l-.006.025-.358-.074c-.322-.066-.64.143-.706.465-.066.321.143.639.465.706l.359.074-.242 1.17-.359-.074c-.321-.066-.639.143-.705.464v.001c-.066.321.143.638.464.706zm-1.649 7.994l.359.074-.02.093c-.066.321-.288.573-.57.693-.174.073-.371.097-.568.056-.52-.107-.856-.619-.75-1.139l.747-3.619c.066-.321.288-.573.571-.693.173-.073.37-.097.568-.057.519.107.855.62.748 1.14l-.002.016-.359-.074c-.322-.066-.64.143-.706.465-.066.321.143.64.464.705l.359.074-.242 1.171-.358-.074c-.321-.066-.64.143-.706.464v.001c-.067.32.142.637.465.704zm-1.651 7.995l.359.074-.021.103c-.067.321-.288.573-.571.692-.174.073-.37.098-.568.057-.52-.107-.856-.62-.749-1.14l.747-3.619c.066-.321.287-.572.57-.692.174-.073.371-.098.568-.057.52.107.856.62.749 1.14l-.001.006-.359-.074c-.322-.066-.639.143-.705.464v.001c-.066.321.143.639.464.705l.359.074-.241 1.171-.359-.074c-.322-.066-.64.143-.706.464-.066.321.143.638.464.705zm-1.649 7.995l.358.074-.022.111c-.066.322-.288.573-.57.693-.174.073-.37.097-.567.057-.52-.107-.857-.62-.75-1.14l.746-3.619c.066-.321.289-.573.571-.692.174-.074.37-.098.568-.057.519.107.854.617.749 1.136l-.358-.074c-.321-.066-.64.142-.706.464v.001c-.066.321.143.639.465.705l.359.074-.242 1.171-.359-.074c-.321-.066-.639.142-.705.464s.141.64.463.706zm-1.65 7.995l.359.074-.025.121c-.066.321-.288.573-.57.692-.174.074-.371.098-.568.057-.52-.107-.857-.619-.75-1.14l.747-3.618c.066-.322.288-.573.571-.693.174-.073.37-.098.568-.057.515.106.848.611.748 1.126l-.355-.074c-.322-.066-.64.143-.706.464-.066.322.143.64.464.706l.359.074-.241 1.17-.359-.074c-.321-.066-.64.143-.706.465s.142.641.464.707zm-1.65 7.995l.359.074-.027.131c-.066.321-.287.573-.57.692-.174.074-.37.098-.568.057-.519-.107-.855-.62-.749-1.139l.747-3.62c.066-.321.287-.572.57-.692.174-.073.371-.098.568-.057.512.105.842.605.75 1.116l-.355-.073c-.321-.066-.639.142-.705.464s.143.64.464.706l.359.074-.241 1.17-.359-.074c-.322-.066-.64.143-.705.465-.067.321.141.64.462.706zm-1.649 7.994l.359.074-.029.141c-.066.322-.289.573-.571.692-.173.074-.37.098-.567.057-.52-.106-.857-.619-.75-1.139l.746-3.619c.066-.321.289-.573.571-.693.174-.073.37-.097.568-.057.507.105.835.598.749 1.106l-.352-.073c-.322-.066-.641.143-.707.465-.066.321.143.64.465.706l.359.074-.242 1.17-.359-.074c-.321-.066-.639.143-.705.465-.066.322.143.639.465.705zm-1.65 7.995l.359.074-.031.15c-.066.321-.288.573-.57.692-.174.074-.371.098-.568.057-.52-.107-.857-.62-.75-1.139l.747-3.619c.066-.322.288-.573.571-.693.174-.074.37-.098.568-.057.504.104.828.592.749 1.096l-.351-.072c-.322-.066-.639.143-.706.465-.065.321.143.64.464.705l.359.074-.241 1.171-.358-.074c-.322-.066-.64.143-.706.464h-.001c-.066.323.143.64.465.706zm-1.649 7.996l.359.074-.033.16c-.066.321-.288.572-.571.692-.174.073-.369.097-.567.057-.521-.107-.856-.62-.75-1.14l.747-3.619c.066-.321.288-.573.57-.693.174-.073.371-.097.568-.056.502.103.824.586.75 1.085l-.35-.072c-.321-.066-.639.143-.705.464v.001c-.066.321.143.639.464.705l.359.074-.241 1.171-.359-.074c-.322-.066-.639.143-.705.464v.001c-.067.322.141.639.464.706zm-1.65 7.995l.358.074-.034.169c-.066.321-.289.573-.571.693-.174.073-.37.097-.567.056-.52-.106-.857-.619-.75-1.139l.747-3.62c.065-.321.288-.572.57-.692.174-.073.371-.097.569-.056.497.102.816.579.748 1.076l-.347-.072c-.321-.066-.64.143-.705.465-.066.321.142.639.464.705l.359.074-.242 1.171-.358-.074c-.322-.066-.64.142-.706.464s.143.639.465.706zm-3.217 7.858l.748-3.62c.066-.321.287-.573.57-.692.174-.074.371-.098.568-.057.494.103.812.574.749 1.066l-.345-.071c-.322-.066-.639.142-.705.464s.142.64.464.706l.358.074-.241 1.171-.358-.074c-.322-.066-.64.142-.706.464-.066.321.143.64.464.706l.359.074-.037.179c-.066.321-.288.573-.57.692-.174.073-.371.098-.568.057-.519-.108-.856-.62-.75-1.139z"/><g fill-rule="evenodd"><path fill="#fff" d="M130.618 128.21c-.281.119-.504.371-.57.692l-.746 3.62c-.107.519.229 1.031.75 1.139.197.041.394.017.566-.057v7.459l-84.917-17.521 25.491-123.542 59.426 12.262v115.948zm1.653-8.005c-.283.12-.504.371-.57.692l-.748 3.62c-.106.52.23 1.032.75 1.139.198.041.395.018.568-.056v15.804l-1.652-.341v-7.459c.283-.119.505-.371.571-.692l.747-3.62c.107-.519-.23-1.031-.749-1.139-.198-.041-.396-.018-.569.057v-115.948l1.652.341v107.602zm1.652-8.005c-.283.12-.505.372-.571.693l-.747 3.619c-.107.52.23 1.032.75 1.14.197.04.395.017.568-.057v16.337l-1.547 7.493-.105-.021v-15.804c.283-.12.504-.372.57-.693l.747-3.619c.107-.52-.229-1.032-.749-1.139-.197-.041-.395-.018-.568.056v-107.602l1.652.341v99.256zm1.65-8.004c-.282.12-.504.371-.57.693l-.746 3.619c-.107.519.229 1.031.749 1.139.198.041.395.018.567-.057v16.338l-1.65 8.004v-16.337c.282-.12.504-.371.57-.692l.746-3.62c.107-.519-.229-1.032-.748-1.139-.198-.041-.395-.018-.568.056v-99.257l1.65.341v90.912zm1.653-8.005c-.283.12-.504.372-.57.693l-.747 3.619c-.107.52.229 1.032.749 1.139.198.041.395.018.568-.057v16.338l-1.652 8.005v-16.338c.283-.119.505-.371.571-.692l.747-3.619c.107-.52-.23-1.032-.749-1.14-.198-.041-.396-.018-.569.057v-90.912l1.652.341v82.566zm1.651-8.003c-.282.12-.505.371-.571.692l-.746 3.62c-.107.519.23 1.031.75 1.139.197.041.395.018.567-.057v16.338l-1.651 8.004v-16.338c.283-.119.504-.37.57-.692l.747-3.619c.107-.52-.229-1.032-.749-1.14-.197-.04-.395-.017-.568.057v-82.567l1.651.341v74.222zm1.651-8.005c-.282.12-.504.371-.57.693l-.746 3.618c-.107.521.229 1.032.75 1.14.197.041.394.018.566-.057v16.338l-1.651 8.005v-16.338c.282-.119.505-.371.571-.692l.746-3.62c.107-.519-.229-1.032-.748-1.139-.199-.041-.396-.017-.569.057v-74.222l1.651.341v65.876zm1.653-8.004c-.283.119-.504.371-.57.692l-.748 3.619c-.106.52.23 1.032.75 1.14.197.04.395.017.568-.057v16.337l-1.652 8.005v-16.338c.283-.119.505-.371.571-.692l.747-3.619c.107-.52-.23-1.032-.75-1.14-.197-.041-.395-.017-.568.057v-65.876l1.652.341v57.531zm1.651-8.005c-.282.12-.505.371-.571.692l-.746 3.619c-.107.52.23 1.032.75 1.14.197.041.394.017.567-.057v16.338l-1.651 8.004v-16.337c.282-.12.504-.371.57-.693l.747-3.619c.106-.52-.229-1.031-.749-1.139-.197-.041-.395-.018-.568.057v-57.532l1.651.341v49.186zm1.651-8.005c-.282.12-.504.372-.57.693l-.747 3.619c-.106.52.23 1.031.75 1.139.198.041.394.018.567-.056v16.337l-1.651 8.005v-16.338c.282-.119.505-.371.571-.692l.746-3.619c.107-.52-.229-1.032-.749-1.14-.198-.041-.395-.017-.568.057v-49.186l1.651.341v40.84zm1.653-8.004c-.283.119-.505.371-.57.692l-.748 3.619c-.106.52.23 1.032.75 1.14.197.041.395.017.568-.057v16.337l-1.652 8.005v-16.337c.283-.12.505-.372.571-.693l.747-3.619c.106-.52-.23-1.032-.749-1.14-.198-.04-.396-.017-.569.057v-40.84l1.652.341v32.495zm1.651-8.005c-.282.12-.505.371-.57.692l-.747 3.62c-.107.519.23 1.032.75 1.139.197.041.394.017.567-.057v16.337l-1.651 8.005v-16.336c.282-.12.504-.371.57-.693l.747-3.619c.107-.52-.229-1.031-.749-1.139-.197-.041-.395-.018-.568.057v-32.496l1.651.341v24.149zm1.651-8.004c-.282.119-.504.371-.57.692l-.747 3.619c-.106.52.23 1.031.75 1.139.197.041.394.018.567-.056v16.337l-1.651 8.004v-16.336c.282-.119.505-.371.571-.692l.746-3.62c.107-.519-.229-1.031-.748-1.139-.198-.04-.396-.017-.569.057v-24.15l1.651.341v15.804zm1.653-8.005c-.283.119-.505.371-.571.692l-.747 3.619c-.107.52.23 1.032.75 1.14.197.041.395.017.568-.057v16.338l-1.652 8.004v-16.336c.283-.12.505-.372.571-.693l.747-3.619c.106-.52-.23-1.032-.75-1.139-.197-.041-.395-.018-.568.057v-15.805l1.652.341v7.458zm0 21.733v-16.338c.282-.119.504-.371.57-.693l.747-3.619c.106-.519-.229-1.031-.749-1.139-.198-.041-.395-.017-.568.057v-7.459l5.777 1.192-5.777 27.999z"/><g fill="#8C8E8F"><path d="M153.038 25.214l7.686 1.586c.322.066.531.384.465.706-.066.321-.384.53-.706.464l-7.687-1.586c-.321-.066-.53-.384-.464-.705v-.001c.066-.322.384-.531.706-.464zM152.555 27.554l7.687 1.586c.322.066.531.385.465.706-.066.322-.385.531-.707.465l-7.686-1.586c-.322-.066-.531-.384-.465-.706.066-.323.384-.532.706-.465zM151.388 33.209l7.687 1.586c.321.066.53.384.464.705v.001c-.065.321-.383.53-.705.464l-7.687-1.586c-.321-.066-.53-.384-.464-.706.066-.322.383-.531.705-.464zM150.905 35.55l7.686 1.586c.322.066.531.384.465.705-.066.322-.384.531-.705.465l-7.688-1.586c-.321-.066-.53-.385-.464-.706.067-.323.384-.532.706-.464zM149.739 41.203l7.686 1.587c.321.066.531.383.465.705-.066.322-.385.531-.706.465l-7.687-1.586c-.322-.066-.531-.384-.465-.706.067-.322.385-.53.707-.465zM149.255 43.544l7.688 1.586c.32.066.53.384.463.706-.065.321-.383.53-.705.464l-7.686-1.586c-.322-.066-.531-.384-.465-.705.066-.322.384-.531.705-.465zM148.089 49.198l7.687 1.586c.321.066.53.385.464.706-.066.322-.384.531-.705.465l-7.688-1.586c-.321-.067-.53-.385-.464-.706.067-.322.384-.531.706-.465zM147.606 51.539l7.686 1.586c.322.066.531.384.465.706-.066.322-.385.53-.706.465l-7.687-1.586c-.322-.067-.531-.385-.465-.706l.001-.001c.067-.321.384-.53.706-.464zM146.438 57.193l7.688 1.586c.321.066.53.384.464.706-.067.321-.384.53-.706.464l-7.687-1.586c-.321-.065-.53-.384-.464-.705.067-.322.384-.531.705-.465zM145.956 59.534l7.687 1.586c.321.066.53.384.464.706-.066.321-.384.53-.705.464l-7.687-1.586c-.322-.066-.53-.384-.464-.705v-.001c.066-.321.383-.53.705-.464zM144.789 65.188l7.687 1.586c.322.066.531.384.465.706-.066.321-.385.53-.706.464l-7.687-1.586c-.322-.066-.53-.384-.465-.705v-.001c.066-.321.385-.53.706-.464zM144.307 67.529l7.687 1.586c.321.066.53.384.464.705v.001c-.066.321-.384.53-.706.464l-7.686-1.586c-.322-.066-.531-.384-.465-.706.066-.321.383-.53.706-.464zM143.14 73.184l7.686 1.586c.322.066.531.384.465.706-.066.321-.384.53-.705.464l-7.687-1.586c-.322-.066-.53-.384-.464-.705v-.001c.065-.323.382-.531.705-.464zM142.657 75.524l7.686 1.586c.322.066.531.384.465.705-.066.322-.385.531-.706.465l-7.687-1.586c-.322-.066-.53-.384-.465-.706.068-.322.385-.53.707-.464zM141.489 81.179l7.688 1.586c.321.066.53.384.464.705v.001c-.066.321-.384.53-.706.464l-7.686-1.586c-.322-.066-.531-.384-.465-.706.067-.322.384-.531.705-.464zM141.007 83.519l7.687 1.586c.321.066.53.384.464.706-.066.322-.384.531-.705.465l-7.687-1.586c-.321-.066-.53-.384-.464-.706.066-.323.383-.532.705-.465zM139.841 89.174l7.686 1.586c.322.065.531.384.465.705-.066.322-.385.531-.706.465l-7.687-1.586c-.322-.066-.531-.384-.464-.706.066-.323.384-.531.706-.464zM139.357 91.514l7.687 1.586c.321.066.53.384.464.706-.066.322-.384.531-.706.465l-7.686-1.586c-.322-.066-.531-.385-.465-.706.067-.323.385-.532.706-.465zM138.19 97.168l7.687 1.586c.321.067.53.384.464.706-.066.322-.384.531-.705.465l-7.687-1.586c-.321-.066-.53-.385-.464-.706.067-.322.383-.531.705-.465zM137.708 99.509l7.686 1.586c.322.066.531.384.465.706-.066.321-.385.53-.705.464l-7.688-1.586c-.322-.066-.53-.384-.464-.705.066-.323.384-.532.706-.465zM136.541 105.163l7.687 1.586c.321.066.53.384.464.706-.066.322-.384.53-.706.465l-7.686-1.587c-.322-.065-.531-.384-.465-.705.066-.322.384-.531.706-.465zM136.058 107.504l7.687 1.586c.321.066.53.384.464.706-.066.321-.383.53-.705.464l-7.687-1.586c-.321-.066-.53-.384-.464-.706.066-.322.383-.53.705-.464zM134.892 113.158l7.686 1.586c.322.066.531.384.465.706-.066.321-.385.531-.706.464l-7.687-1.586c-.321-.066-.53-.384-.464-.705v-.001c.066-.321.383-.53.706-.464zM134.408 115.499l7.687 1.586c.322.066.53.384.465.706-.066.321-.385.53-.707.464l-7.686-1.586c-.322-.066-.531-.384-.465-.705v-.001c.067-.321.385-.53.706-.464zM133.241 121.153l7.687 1.586c.321.066.53.384.464.705v.001c-.066.321-.384.53-.705.464l-7.687-1.586c-.321-.066-.53-.384-.464-.705.067-.322.384-.531.705-.465zM132.759 123.494l7.686 1.586c.322.066.531.384.465.705v.001c-.066.321-.384.53-.705.464l-7.688-1.586c-.321-.066-.53-.384-.464-.706.066-.322.384-.53.706-.464zM131.592 129.148l7.687 1.586c.321.066.531.384.464.706-.065.321-.384.53-.706.464l-7.686-1.586c-.322-.066-.531-.384-.465-.706.066-.322.385-.53.706-.464zM131.108 131.489l7.688 1.586c.321.065.53.383.464.705h-.001c-.066.322-.383.531-.705.465l-7.687-1.586c-.321-.066-.53-.385-.464-.706.067-.322.384-.53.705-.464z"/></g></g><g stroke="#B3B3B3" stroke-width="1.2" stroke-linecap="round" stroke-linejoin="round" stroke-miterlimit="22.926" fill="none"><path d="M79.717 22.113l60.896 12.566-17.88 86.65-60.896-12.566zM79.717 22.113l60.896 12.566-.868 4.208-60.896-12.566zM94.598 32.24l28.342 5.848-1.323 6.409-28.342-5.848zM75.45 42.793l60.896 12.566-3.646 17.667-60.896-12.566zM88.176 40.209l37.505 7.739-.554 2.686-37.505-7.739zM112.989 72.656l15.291 3.155-2.946 14.278-15.291-3.155zM93.875 68.712l15.291 3.155-2.946 14.277-15.291-3.155zM74.76 64.768l15.292 3.156-2.946 14.278-15.292-3.156zM63.426 101.06l60.895 12.566-1.59 7.703-60.895-12.566zM109.64 88.887l15.291 3.154-.554 2.686-15.291-3.154zM108.691 93.502l15.29 3.154-.554 2.686-15.29-3.154zM107.734 98.123l15.291 3.155-.554 2.686-15.291-3.155zM112.397 103.893l9.681 1.998-.554 2.686-9.681-1.998zM90.524 84.948l15.291 3.155-.554 2.686-15.291-3.155zM89.571 89.563l15.291 3.155-.554 2.686-15.291-3.155zM88.623 94.175l15.291 3.154-.554 2.686-15.291-3.154zM93.278 99.948l9.681 1.997-.554 2.686-9.681-1.997zM71.408 81.008l15.291 3.157-.554 2.686-15.291-3.157zM70.459 85.62l15.29 3.155-.554 2.686-15.29-3.155zM69.506 90.235l15.291 3.155-.554 2.686-15.291-3.155zM74.165 96.008l9.682 1.998-.554 2.686-9.682-1.998z"/></g><path opacity=".15" fill-rule="evenodd" fill="#000305" d="M1.796 73.19l86.553-31.037 12.287.872-8.933 8.481-79.813 28.622-6.74 2.417c-1.404.503-2.964-.233-3.467-1.637l-1.524-4.252c-.504-1.403.233-2.962 1.637-3.466z"/><g fill-rule="evenodd"><path fill="#DE6800" d="M101.731 43.927l8.934-8.481-12.289-.872-86.552 31.036c-1.404.504-2.141 2.063-1.638 3.467l1.524 4.252c.503 1.403 2.063 2.14 3.467 1.637l86.554-31.039z"/><path fill="#7FB4E3" d="M101.731 43.927l8.934-8.481-12.289-.872-82.796 29.69c.62 3.494 1.757 6.583 3.354 9.354l82.797-29.691z"/><path fill="#4F95D0" d="M101.731 43.927l8.934-8.481-12.289-.872-79.813 28.62c.589 3.526 1.726 6.612 3.354 9.354l79.814-28.621z"/><path fill="#E6E6E6" d="M101.731 43.927l8.934-8.481-12.287-.872c.256 1.584.67 3.207 1.252 4.829s1.293 3.138 2.101 4.524z"/><path fill="#B3B3B3" d="M107.714 38.247l2.951-2.802-4.061-.287c.086.522.223 1.058.414 1.595.194.535.428 1.036.696 1.494z"/></g></g></svg>