<svg xmlns="http://www.w3.org/2000/svg" viewBox="0 0 286.932 320.104"><g fill-rule="evenodd" clip-rule="evenodd"><path fill="#3E414C" d="M11.685 291.798h263.602v6.805h-263.602zm131.277 28.306c-13.764 0-24.912-11.154-24.912-24.914 0-13.75 11.148-24.893 24.912-24.893 13.775 0 24.915 11.143 24.915 24.893 0 13.759-11.14 24.914-24.915 24.914z"/><path fill="#E0E6DF" d="M142.965 305.213c-5.529 0-10.02-4.481-10.02-10.02 0-5.529 4.491-10.008 10.02-10.008 5.53 0 10.021 4.479 10.021 10.008 0 5.538-4.491 10.02-10.021 10.02z"/><path fill="#3E414C" d="M277.187 304.944c-5.381 0-9.752-4.361-9.752-9.751 0-5.381 4.371-9.739 9.752-9.739 5.374 0 9.745 4.358 9.745 9.739 0 5.39-4.371 9.751-9.745 9.751zm-267.436 0c-5.38 0-9.751-4.361-9.751-9.751 0-5.381 4.371-9.739 9.751-9.739 5.382 0 9.746 4.358 9.746 9.739 0 5.39-4.364 9.751-9.746 9.751z"/></g><path d="M137.175 142.355c8.688-5.838 19.148-2.297 22.921 6.696 8.373-7.293 20.974-3.462 24.474 7.422.471-.285.925-.543 1.363-.827 9.31-6.024 21.606-.241 22.919 10.786.094.78.138 1.571.142 2.356.021 12.523.094 25.047.037 37.57-.094 21.125-8.768 38.055-25.448 50.838-18.792 14.403-44.441 16.757-65.371 5.949-17.413-8.993-28.67-23.035-33.336-42.175-1.122-4.602-1.641-9.285-1.616-14.047.06-11.072-.033-22.144-.016-33.216.013-8.303 5.934-14.9 13.902-15.591 3.037-.263 5.833.478 8.447 2 .428.25.855.499 1.286.741.023.015.077-.021.705-.034-.141-.561-.401-1.122-.402-1.683-.044-19.739-.085-39.477-.079-59.216.001-8.42 5.702-14.896 13.739-15.746 7.738-.819 15.091 5.282 16.088 13.375.132 1.067.169 2.151.171 3.226.02 13.603.025 27.203.036 40.806l.038.77zm-32.773 103.07c12.326 11.937 25.949 17.897 39.693 18.175 18.987.383 34.643-6.787 46.576-21.626 7.912-9.84 12.124-21.163 12.262-33.829.141-13.144.05-26.291.034-39.437 0-2.525-.692-4.877-2.517-6.697-2.575-2.571-5.672-3.603-9.209-2.368-3.748 1.311-5.625 4.173-6.13 8.022-.075.575-.053 1.17-.194 1.727-.558 2.195-3.221 3.054-4.791 1.437-.617-.633-1.003-1.722-1.053-2.629-.147-2.646.025-5.31-.109-7.956-.285-5.67-5.133-9.703-10.407-8.767-4.236.75-7.132 4.243-7.471 9.014-.15 2.104-1.328 3.366-3.096 3.313-1.761-.054-2.917-1.395-2.942-3.456-.025-1.99.037-3.985-.053-5.971-.129-2.783-1.241-5.158-3.429-6.91-2.676-2.145-5.688-2.649-8.866-1.277-3.291 1.421-4.998 4.083-5.496 7.574-.088.614-.069 1.247-.199 1.851-.248 1.156-1.001 1.88-2.127 2.204-1.097.315-2.023.018-2.846-.768-.951-.907-.943-2.065-.945-3.232-.031-17.706-.053-35.413-.111-53.121-.005-1.313-.102-2.674-.456-3.928-.954-3.37-3.164-5.629-6.614-6.405-3.416-.77-6.298.343-8.573 2.981-1.747 2.027-2.229 4.45-2.225 7.06.062 36.618.102 73.233.145 109.852.001.746.026 1.498-.06 2.234-.184 1.579-1.38 2.632-2.938 2.659-1.528.026-2.77-1.033-2.989-2.606-.08-.57-.06-1.157-.06-1.737-.021-12.191-.028-24.384-.067-36.575-.003-1.07-.092-2.165-.334-3.204-1.388-5.968-7.917-8.898-13.028-5.816-3.34 2.014-4.584 5.184-4.575 8.959.028 10.783.018 21.565.072 32.347.082 16.204 6.108 29.895 15.128 38.906zm37.341-130.215c.025-1.078-.029-2.118.115-3.132.05-.35.543-.75.926-.921 4.214-1.877 8.212-4.116 11.938-6.842 9.075-6.64 15.398-15.348 19.134-25.888 6.327-17.849 4.005-34.772-6.401-50.418-16.578-24.919-51.233-31.838-76.266-15.488-22.051 14.402-31.22 41.28-22.297 65.951 5.317 14.701 15.27 25.309 29.451 31.876 1.449.672 2.2 1.368 1.911 2.988-.084.475.027.986.052 1.519-18.175-5.686-40.102-27.604-38.311-58.801 1.789-31.152 27.33-55.24 57.735-56.033 31.16-.81 57.178 22.233 60.722 52.336 3.814 32.391-18.175 56.296-38.709 62.853zm-.116-27.931c.013-2.286-.041-4.398.079-6.501.033-.583.476-1.227.9-1.687 7.851-8.538 9.881-20.994 5.1-31.499-7.86-17.277-29.839-22.452-44.52-10.482-11.623 9.476-14.093 26.009-5.75 38.498.185.274.37.56.606.787 1.982 1.927 2.684 4.245 2.339 6.98-.136 1.086.066 2.216.119 3.458-10.102-5.289-16.081-22.503-12.673-35.887 3.974-15.607 18.098-26.332 34.286-26.036 15.866.29 29.679 11.625 33.057 27.131 2.921 13.407-3.538 30.429-13.543 35.238z" fill="#F05B5B"/></svg>