<svg xmlns="http://www.w3.org/2000/svg" viewBox="0 0 549.696 594.01">
    <g fill="#EF5E65">
        <path d="M285.861 369.004c-3.416.086-6.212.795-5.907 5.104.957 4.08 1.69 8.666 7.078 8.563 2.948-.053 6.566-1.362 6.012-5.419-.551-4.019-1.461-8.398-7.183-8.248zM525.147 164.074c-16.375-33.533-38.137-62.462-65.273-86.827-27.148-24.345-58.494-43.303-94.014-56.887-35.531-13.562-72.865-20.36-111.973-20.36-35.928 0-69.87 5.993-101.795 17.967-31.945 11.977-60.685 28.35-86.23 49.1l88.623 50.3c-45.507 19.163-82.631 49.1-111.377 89.821-28.745 40.714-43.108 87.032-43.108 138.924 0 34.332 6.581 66.463 19.753 96.406 13.177 29.937 30.935 56.098 53.296 78.438 22.344 22.363 48.503 40.12 78.441 53.292 29.939 13.179 62.072 19.76 96.406 19.76h301.8v-320.952c0-39.108-8.194-75.449-24.549-108.982zm-55.943 169.53c-.365 19.263-20.863 47.287-39.531 54.646-15.928 6.279-32.555 7.484-49.336 6.628-9.656-.498-18.912-.315-30.656 5.663 28.967-.353 44.857 15.04 57.51 35.433 6.6 10.639 13.477 21.112 20.387 31.556 7.26 10.969 5.328 15.315-7.959 17.339-37.348 5.701-66.934-14.519-75.383-51.669-1.018-4.473-3.545-10.367.342-13.366 4.91-3.782 9.342 1.639 13.854 3.924 8.123 4.118 12.904 14.927 25.393 12.962-14.127-18.969-31.008-30.636-54.355-31.213-20.033-.5-39.207 4.451-58.456 8.888-5.078 1.166-10.488 4.027-14.727-.332-4.731-4.865-1.836-10.8-.141-16.277 1.238-4.009 4.902-5.181 8.04-6.957 3.715-2.104 8.188-4.185 4.327-9.345-3.863-5.156-8.94-5.35-13.352-.728-2.828 2.963-4.944 6.667-7.063 10.229-14.399 24.188-28.208 48.752-43.222 72.556-12.371 19.618-28.249 36.033-49.543 46.508-2.893 1.42-5.691 3.592-8.62 2.113-3.897-1.963-1.084-5.437-.665-8.266.374-2.517 29.303-50.01 23.041-53.416-6.423-2.53-40.227 60.834-48.902 67.108-4.116 2.978-10.606 7.909-15.625 3.032-4.529-4.405.86-9.468 3.14-13.881 24.668-47.709 54.443-92.653 76.775-141.611 2.733-5.993 6.541-8.065 12.605-9.78 33.737-9.531 64.288-24.308 84.939-55.156-8.677-1.449-13.767 4.408-18.349 8.574-9.558 8.688-28.153 19.211-37.397 24.211-3.367 1.821 2.699-17.566-.723-15.658-3.133 1.748-6.836 18.893-10.918 20.688-8.924 3.922-26.73 8.879-37.478 11.135-5.423 1.143-12.377 4.848-16.35-.065-3.777-4.669.721-10.95 2.79-16.056 20.879-51.465 43.35-101.739 89.142-137.316 14.579-11.327 13.071-16.183-3.353-25.024-5.725-3.083-13.706-8.09-6.865-13.636 17.676-14.336 29.21-32.487 40.069-51.81 2.287-4.074 9.789-5.556 15.147-7.513 31.866-11.637 67.396-9.059 98.163-25.39 5.41-2.867 8.959.728 8.338 7.047-1.682 17.052-5.436 33.556-20.967 43.437-8.434 5.364-7.238 8.411-1.672 15.315 19.652 24.377 34.365 51.622 36.898 83.324 5.076 63.461-32.02 116.591-94.873 138.881-4.412 1.564-13.279-1.854-12.563 9.57.715 11.332 8.193 11.666 15.592 13.387 13.553 3.152 26.6-3.355 40.203-2.034 22.73 2.21 41.396-7.573 58.355-22.954-14.086 3.336-27.314 10.817-42.336 12.114-3.828.329-8.676 3.647-11.02-1.431-1.725-3.738 2.332-6.611 4.752-9.144 2.504-2.61 5.404-5.079 8.586-6.764 24.074-12.786 49.557-21.777 76.049-28.188 9.148-2.215 8.056 3.593 7.963 8.712zM282.732 156.098c4.925-.572 9.435.228 13.992 1.336 4.563 1.105 8.444-.902 11.136-5.231l-1.373-4.396-.002-.013-1.372-4.395c-4.684-2.028-9.011-1.465-12.138 2.035-3.118 3.511-6.313 6.811-10.694 9.145-.342-.508-.956-.768-1.626-.613-.668.147-1.158 1.022-.926 1.765l2.244-.698.455-.146 8.805-2.746c-.007-.489.307-.942.793-1.094l9.102-2.847c.592-.186 1.227.152 1.412.745l.021.082.035.08c.181.588-.152 1.229-.749 1.411l-9.099 2.847c-.48.152-1.002-.04-1.273-.449l-8.807 2.754-.451.144-2.24.7c.234.747 1.145 1.149 1.763.93.63-.223.936-.691.992-1.346z" />
    </g>
</svg>