<svg xmlns="http://www.w3.org/2000/svg" xmlns:xlink="http://www.w3.org/1999/xlink" width="721.731" height="721.731" viewBox="0 0 721.731 721.731">
    <g>
        <defs>
            <rect id="a" width="721.731" height="721.731" />
        </defs>
        <clipPath id="b">
            <use xlink:href="#a" overflow="visible" />
        </clipPath>
        <line clip-path="url(#b)" fill="none" stroke="#ABABAB" stroke-width="4" stroke-miterlimit="10" x1="511.246" y1="191.016" x2="119.645" y2="550.61" />
        <g clip-path="url(#b)">
            <defs>
                <rect id="c" width="721.731" height="721.731" />
            </defs>
            <clipPath id="d">
                <use xlink:href="#c" overflow="visible" />
            </clipPath>
            <circle clip-path="url(#d)" fill="none" stroke="#AAAAAA" stroke-width="4" stroke-miterlimit="10" cx="360.865" cy="360.865" r="358.865" />
            <path clip-path="url(#d)" fill="none" stroke="#ABABAB" stroke-width="4" stroke-miterlimit="10" d="M600.837,375.651
                c0,139.322-123.056,251.565-274.848,252.267c-40.218,0.185-80.702-4.01-112.154-16.503
                C107.271,569.084,54.968,486.216,51.141,375.651c-4.87-140.733,124.335-248.066,276.13-248.066
                C479.065,127.584,600.837,236.33,600.837,375.651z" />
            <rect x="119.646" y="99.084" clip-path="url(#d)" fill="none" stroke="#ABABAB" stroke-width="4" stroke-miterlimit="10" width="481.191" height="527.514" />
            <line clip-path="url(#d)" fill="none" stroke="#ABABAB" stroke-width="4" stroke-miterlimit="10" x1="327.271" y1="99.084" x2="327.271" y2="626.589" />
            <line clip-path="url(#d)" fill="none" stroke="#ABABAB" stroke-width="4" stroke-miterlimit="10" x1="51.141" y1="361.061" x2="600.543" y2="361.061" />
            <g opacity="0.28" clip-path="url(#d)">
                <g>
                    <defs>
                        <rect id="e" x="51.141" y="32.579" width="549.696" height="594.009" />
                    </defs>
                    <clipPath id="f">
                        <use xlink:href="#e" overflow="visible" />
                    </clipPath>
                    <path clip-path="url(#f)" fill="#727373" d="M576.287,196.653c-16.375-33.533-38.136-62.462-65.273-86.827
                        c-27.147-24.345-58.492-43.303-94.013-56.887c-35.531-13.562-72.866-20.36-111.974-20.36c-35.927,0-69.869,5.992-101.795,17.967
                        c-31.945,11.977-60.685,28.35-86.23,49.1l88.623,50.3c-45.507,19.163-82.631,49.1-111.377,89.821
                        c-28.744,40.714-43.107,87.031-43.107,138.924c0,34.332,6.581,66.463,19.752,96.406c13.177,29.937,30.936,56.098,53.297,78.439
                        c22.344,22.363,48.503,40.12,78.441,53.292c29.939,13.178,62.072,19.76,96.406,19.76h301.8V305.634
                        C600.837,266.527,592.645,230.187,576.287,196.653" />
                </g>
            </g>
            <path clip-path="url(#d)" fill="#EF5E65" d="M325.666,431.34c-3.25,0.081-5.909,0.757-5.621,4.854
                c0.911,3.882,1.609,8.246,6.735,8.149c2.804-0.051,6.246-1.297,5.719-5.155C331.975,435.365,331.111,431.198,325.666,431.34" />
            <path clip-path="url(#d)" fill="#FFFFFF" d="M500.096,397.662c-0.346,18.325-19.849,44.988-37.608,51.989
                c-15.154,5.976-30.972,7.122-46.938,6.307c-9.186-0.475-17.993-0.302-29.166,5.388c27.559-0.335,42.677,14.309,54.713,33.711
                c6.279,10.12,12.822,20.086,19.396,30.02c6.907,10.437,5.069,14.572-7.572,16.496c-35.531,5.424-63.679-13.811-71.718-49.156
                c-0.968-4.256-3.374-9.863,0.326-12.718c4.671-3.598,8.887,1.561,13.179,3.734c7.729,3.918,12.277,14.201,24.158,12.332
                c-13.441-18.047-29.501-29.147-51.715-29.697c-19.06-0.475-37.302,4.236-55.614,8.456c-4.831,1.11-9.978,3.831-14.01-0.315
                c-4.502-4.63-1.747-10.274-0.135-15.486c1.178-3.814,4.664-4.928,7.649-6.62c3.535-2.001,7.789-3.98,4.117-8.889
                c-3.675-4.906-8.506-5.091-12.703-0.693c-2.69,2.82-4.704,6.343-6.72,9.733c-13.7,23.013-26.837,46.382-41.12,69.028
                c-11.771,18.664-26.876,34.281-47.135,44.247c-2.753,1.352-5.415,3.417-8.201,2.011c-3.707-1.867-1.032-5.172-0.632-7.863
                c0.355-2.395,27.879-47.578,21.92-50.82c-6.111-2.407-38.272,57.877-46.525,63.847c-3.916,2.832-10.091,7.525-14.865,2.886
                c-4.309-4.191,0.818-9.008,2.987-13.206c23.469-45.391,51.797-88.15,73.043-134.729c2.6-5.702,6.223-7.674,11.994-9.304
                c32.096-9.07,61.163-23.126,80.81-52.476c-8.256-1.381-13.099,4.192-17.457,8.156c-9.094,8.266-26.785,18.278-35.58,23.033
                c-3.203,1.735,2.568-16.712-0.689-14.896c-2.98,1.663-6.502,17.974-10.386,19.682c-8.49,3.731-25.432,8.447-35.656,10.593
                c-5.161,1.086-11.777,4.613-15.555-0.063c-3.594-4.442,0.685-10.418,2.653-15.275c19.864-48.963,41.243-96.793,84.809-130.641
                c13.871-10.777,12.436-15.397-3.19-23.808c-5.446-2.933-13.039-7.698-6.531-12.974c16.816-13.639,27.79-30.908,38.121-49.291
                c2.177-3.876,9.313-5.286,14.411-7.147c30.319-11.072,64.119-8.619,93.391-24.156c5.148-2.728,8.524,0.692,7.933,6.704
                c-1.599,16.224-5.168,31.925-19.946,41.326c-8.022,5.103-6.887,8.002-1.591,14.57c18.699,23.192,32.695,49.112,35.106,79.274
                c4.829,60.377-30.464,110.924-90.262,132.131c-4.198,1.487-12.634-1.765-11.952,9.104c0.681,10.781,7.796,11.102,14.833,12.737
                c12.896,2.999,25.308-3.194,38.25-1.937c21.625,2.104,39.385-7.204,55.52-21.838c-13.402,3.175-25.987,10.291-40.278,11.525
                c-3.642,0.313-8.255,3.47-10.484-1.36c-1.639-3.558,2.22-6.291,4.521-8.698c2.382-2.484,5.143-4.832,8.168-6.436
                c22.907-12.165,47.147-20.718,72.353-26.816C501.226,387.265,500.188,392.792,500.096,397.662" />
            <g opacity="0.28" clip-path="url(#d)">
                <g>
                    <defs>
                        <rect id="g" x="319.777" y="215.588" width="26.818" height="14.751" />
                    </defs>
                    <clipPath id="h">
                        <use xlink:href="#g" overflow="visible" />
                    </clipPath>
                    <path clip-path="url(#h)" fill-rule="evenodd" clip-rule="evenodd" fill="#727373" d="M322.689,228.783
                        c4.686-0.544,8.976,0.217,13.313,1.271c4.341,1.052,8.034-0.858,10.592-4.976l-1.304-4.183l-0.002-0.012l-1.306-4.181
                        c-4.456-1.93-8.573-1.394-11.548,1.936c-2.967,3.34-6.006,6.48-10.174,8.7c-0.325-0.483-0.909-0.73-1.548-0.583
                        c-0.635,0.14-1.1,0.973-0.879,1.679l2.133-0.664l0.434-0.138l8.376-2.613c-0.007-0.465,0.292-0.896,0.754-1.041l8.66-2.708
                        c0.561-0.176,1.165,0.144,1.342,0.708c0.012,0.028,0.017,0.051,0.021,0.078c0.01,0.02,0.017,0.053,0.033,0.077
                        c0.172,0.559-0.144,1.17-0.711,1.342l-8.658,2.708c-0.457,0.144-0.953-0.038-1.211-0.427l-8.378,2.62l-0.428,0.136l-2.133,0.666
                        c0.223,0.71,1.089,1.093,1.678,0.885C322.345,229.852,322.637,229.407,322.689,228.783" />
                </g>
            </g>
            <g opacity="0.28" clip-path="url(#d)">
                <g>
                    <defs>
                        <rect id="j" x="319.704" y="431.004" width="13.169" height="13.674" />
                    </defs>
                    <clipPath id="k">
                        <use xlink:href="#j" overflow="visible" />
                    </clipPath>
                    <path clip-path="url(#k)" fill="#727373" d="M325.635,431.007c-3.416,0.087-6.212,0.796-5.908,5.104
                        c0.957,4.08,1.69,8.666,7.078,8.564c2.948-0.054,6.566-1.362,6.012-5.42C332.266,435.238,331.358,430.859,325.635,431.007" />
                </g>
            </g>
        </g>
    </g>
</svg>