<svg xmlns="http://www.w3.org/2000/svg" viewBox="0 0 116.423 128.95"><path fill-rule="evenodd" clip-rule="evenodd" d="M99.28 7.828l-43.492 48.579-.083.093-19.428 21.7-.026.029-4.109 4.59-1.803 2.014-4.11 4.589-1.801 2.013-4.11 4.59-.391.437-15.345 17.14 17.142 15.348 94.699-105.775z" opacity=".15"/><g fill-rule="evenodd" clip-rule="evenodd"><path fill="#7FB4E3" d="M17.144 121.123l-17.142-15.347 94.695-105.769 17.142 15.347z"/><path d="M8.757 103.442l-3.702-3.314 84.581-94.485 3.702 3.314zm84.688-84.79l-8.57-7.673 1.802-2.013 8.57 7.673zm-5.915 6.599l-8.572-7.673 1.803-2.014 8.572 7.673zm-5.908 6.607l-8.57-7.673 1.802-2.013 8.57 7.673zm-5.91 6.602l-8.571-7.674 1.803-2.014 8.571 7.674zm-5.913 6.603l-8.571-7.674 1.802-2.013 8.571 7.674zm-5.915 6.598l-8.572-7.673 1.802-2.013 8.572 7.673zm-5.91 6.607l-8.57-7.673 1.802-2.013 8.57 7.673zm-5.912 6.599l-8.572-7.673 1.802-2.013 8.572 7.673zm-5.912 6.607l-8.57-7.673 1.802-2.013 8.57 7.673zm-5.911 6.598l-8.572-7.673 1.802-2.013 8.572 7.673zm-5.911 6.609l-8.571-7.674 1.802-2.013 8.571 7.674zm-5.912 6.596l-8.572-7.673 1.802-2.013 8.572 7.673zm-5.916 6.609l-8.57-7.673 1.802-2.013 8.57 7.673zm-5.911 6.603l-8.57-7.673 1.802-2.013 8.57 7.673z" fill="#CAE4FC"/></g></svg>