<svg xmlns="http://www.w3.org/2000/svg" viewBox="0 0 549.7 594.01">
    <path fill="rgba(0, 0, 0, .15)" d="M525.151 164.07c-16.381-33.53-38.141-62.46-65.281-86.82-27.139-24.35-58.49-43.31-94.01-56.89-35.529-13.56-72.869-20.36-111.97-20.36-35.93 0-69.87 5.99-101.8 17.97-31.94 11.97-60.68 28.35-86.23 49.1l88.63 50.3c-45.51 19.16-82.64 49.1-111.38 89.82-28.75 40.71-43.11 87.03-43.11 138.92 0 34.33 6.58 66.46 19.75 96.409 13.18 29.931 30.94 56.091 53.3 78.44 22.34 22.36 48.5 40.12 78.44 53.29 29.94 13.18 62.07 19.76 96.41 19.76h301.8v-320.959c0-39.1-8.2-75.44-24.549-108.98z" />
</svg>