<svg xmlns="http://www.w3.org/2000/svg" viewBox="0 0 178.84 176.398"><path stroke="#F05A5B" stroke-width="4" stroke-miterlimit="10" d="M27.305 51.262c6.834-9.682 15.661-16.799 26.481-21.355l-21.071-11.96c6.073-4.934 12.906-8.828 20.502-11.676 7.59-2.845 15.66-4.271 24.203-4.271 9.298 0 18.175 1.617 26.623 4.842 8.445 3.229 15.897 7.736 22.352 13.525 6.452 5.793 11.627 12.672 15.52 20.645 3.89 7.973 5.838 16.613 5.838 25.912v76.308h-71.758c-8.163 0-15.803-1.564-22.921-4.697-7.118-3.131-13.338-7.354-18.65-12.67-5.317-5.313-7.574-8.16-10.707-15.277-3.133-7.119-6.662-18.131-6.662-26.294 0-12.339 3.416-23.351 10.25-33.032zM56.486 68.752c3.271-4.635 7.497-8.043 12.678-10.225l-10.088-5.725c2.907-2.363 6.179-4.227 9.814-5.59 3.634-1.363 7.497-2.045 11.587-2.045 4.451 0 8.7.774 12.745 2.318 4.043 1.545 7.61 3.703 10.7 6.475 3.089 2.773 5.566 6.066 7.43 9.883 1.862 3.816 2.795 7.953 2.795 12.404v36.531h-34.352c-3.907 0-7.564-.748-10.973-2.248-3.407-1.5-6.385-3.521-8.928-6.066-2.546-2.543-4.566-5.521-6.066-8.928-1.5-3.408-2.249-7.064-2.249-10.972 0-5.908 1.636-11.179 4.907-15.812z" fill="none"/><g fill-rule="evenodd" clip-rule="evenodd"><path fill="#3E414C" d="M7.283 158.755h164.3v4.24h-164.3zM89.106 176.398c-8.579 0-15.527-6.953-15.527-15.529 0-8.57 6.948-15.516 15.527-15.516 8.585 0 15.529 6.945 15.529 15.516.001 8.576-6.944 15.529-15.529 15.529z"/><path fill="#E0E6DF" d="M89.108 167.117c-3.446 0-6.245-2.793-6.245-6.246 0-3.445 2.799-6.236 6.245-6.236s6.245 2.791 6.245 6.236c.001 3.453-2.798 6.246-6.245 6.246z"/><path fill="#3E414C" d="M172.767 166.949c-3.354 0-6.078-2.719-6.078-6.078 0-3.354 2.725-6.07 6.078-6.07 3.35 0 6.073 2.717 6.073 6.07 0 3.359-2.724 6.078-6.073 6.078zM6.078 166.949c-3.354 0-6.078-2.719-6.078-6.078 0-3.354 2.725-6.07 6.078-6.07 3.354 0 6.074 2.717 6.074 6.07 0 3.359-2.719 6.078-6.074 6.078z"/></g></svg>