<svg xmlns="http://www.w3.org/2000/svg" viewBox="0 0 624.5 768.172">
    <path stroke="#F05B5B" stroke-width="6" stroke-miterlimit="10" d="M608.869 431.302c-44.853 10.853-87.994 26.076-128.757 47.724-5.384 2.853-10.298 7.03-14.536 11.452-4.097 4.285-10.962 9.149-8.045 15.48 3.968 8.596 12.175 2.978 18.656 2.42 25.434-2.195 47.83-14.861 71.679-20.51-28.712 26.041-60.316 42.605-98.801 38.863-23.033-2.239-45.122 8.781-68.068 3.443-12.524-2.911-25.188-3.479-26.397-22.664-1.213-19.342 13.8-13.555 21.27-16.203 106.416-37.74 169.223-127.693 160.628-235.139-4.29-53.674-29.199-99.803-62.474-141.075-9.426-11.688-11.446-16.847 2.83-25.928 26.299-16.729 32.651-44.671 35.498-73.542 1.053-10.699-4.956-16.785-14.117-11.931-52.092 27.65-112.242 23.284-166.197 42.986-9.073 3.314-21.773 5.823-25.646 12.719-18.386 32.716-37.914 63.447-67.84 87.719-11.583 9.389 1.931 17.868 11.623 23.088 27.807 14.968 30.36 23.191 5.677 42.367-77.528 60.236-115.574 145.354-150.925 232.49-3.501 8.643-11.117 19.277-4.723 27.182 6.725 8.32 18.499 2.045 27.681.112 18.197-3.819 48.345-12.212 63.454-18.853 6.912-3.038 13.181-32.065 18.485-35.025 5.793-3.23-4.478 29.596 1.224 26.512 15.651-8.465 47.135-26.283 63.319-40.99 7.757-7.055 16.375-16.973 31.065-14.517-34.964 52.229-86.689 77.245-143.81 93.384-10.268 2.902-16.714 6.412-21.342 16.559-37.808 82.891-88.221 158.984-129.985 239.76-3.859 7.473-12.986 16.043-5.318 23.502 8.499 8.258 19.486-.094 26.455-5.133 14.687-10.625 71.92-117.906 82.795-113.623 10.602 5.77-38.379 86.179-39.01 90.438-.71 4.791-5.473 10.671 1.125 13.994 4.96 2.503 9.696-1.175 14.594-3.578 36.053-17.734 62.936-45.526 83.881-78.741 25.417-40.302 48.798-81.891 73.178-122.844 3.587-6.031 7.172-12.303 11.959-17.318 7.468-7.826 16.066-7.5 22.605 1.231 6.537 8.736-1.035 12.259-7.326 15.819-5.311 3.01-11.516 4.994-13.611 11.779-2.87 9.275-7.773 19.321.239 27.561 7.175 7.381 16.335 2.537 24.933.563 32.591-7.512 65.054-15.895 98.972-15.049 39.529.979 68.11 20.731 92.029 52.847-21.143 3.327-29.236-14.974-42.99-21.946-7.638-3.868-15.143-13.047-23.455-6.643-6.582 5.078-2.301 15.059-.578 22.63 14.305 62.901 64.396 97.132 127.628 87.479 22.497-3.424 25.769-10.785 13.477-29.355-11.699-17.68-23.345-35.414-34.519-53.426-21.42-34.525-48.323-60.586-97.367-59.989 19.884-10.124 35.557-10.431 51.903-9.589 28.415 1.453 56.563-.59 83.53-11.221 31.606-12.459 66.313-59.908 66.93-92.52.159-8.667 2.007-18.503-13.485-14.751zm-294.948 97.825c-9.124.172-10.365-7.593-11.986-14.501-.515-7.295 4.219-8.494 10.004-8.641 9.688-.252 11.226 7.163 12.158 13.967.94 6.868-5.186 9.086-10.176 9.175zm16.41-381.346c-7.718-1.878-15.353-3.23-23.689-2.263-.094 1.11-.614 1.904-1.682 2.277-1.046.372-2.589-.311-2.984-1.574l3.795-1.184.764-.245 14.909-4.663c.459.695 1.342 1.019 2.155.761l15.405-4.818c1.01-.307 1.573-1.392 1.268-2.389l-.06-.135-.038-.14c-.314-1.003-1.389-1.575-2.389-1.261l-15.41 4.821c-.823.256-1.354 1.023-1.342 1.852l-14.906 4.649-.771.244-3.799 1.183c-.394-1.256.436-2.738 1.567-2.987 1.133-.262 2.174.178 2.752 1.038 7.419-3.951 12.827-9.539 18.107-15.483 5.294-5.926 12.619-6.879 20.549-3.445l2.324 7.44.003.021 2.323 7.443c-4.553 7.33-11.123 10.728-18.851 8.858z" fill="none" />
</svg>