<svg xmlns="http://www.w3.org/2000/svg" viewBox="0 0 178.284 273.08"><g clip-rule="evenodd"><g stroke="#F05A5B" stroke-width="4" stroke-miterlimit="10" fill="none"><path d="M94.645 247.726c6.758-35.646 22.182-65.338 39.863-94.779 17.682-29.441 12.15-60.919-12.221-89.151h-67.47399999999999c-24.37 28.231-29.896 59.71-12.219 89.151 17.682 29.441 33.721 58.961 40.478 94.609-4.314 1.311-7.436 5.018-7.853 10.031s4.634 10.332 10.344 10.332v-88.15599999999999c-3.402-1.025-5.895-4.195-5.895-7.918v-69.738c0-4.551 3.718-8.27 8.27-8.27.198 0 .412.006.61.021.204-.016.417-.021.616-.021 4.551 0 8.268 3.719 8.268 8.27v69.738c0 3.723-2.49 6.893-5.893 7.918v88.15599999999999c5.715 0 10.527-5.51 10.344-10.332-.185-4.828-2.787-8-7.238-9.861zM124.331 61.913h-71.558c-1.163 0-2.123-.961-2.123-2.133v-11.916c0-1.172.96-2.131 2.123-2.131h71.557c1.162 0 2.123.959 2.123 2.131v11.916c.001 1.172-.96 2.133-2.122 2.133zM56.974 2h62.875v43.733h-62.875z"/></g><g fill-rule="evenodd"><path fill="#3E414C" d="M6.728 255.437h164.3v4.24h-164.3zM88.551 273.08c-8.579 0-15.527-6.951-15.527-15.529 0-8.568 6.948-15.514 15.527-15.514 8.584 0 15.53 6.945 15.53 15.514 0 8.577-6.946 15.529-15.53 15.529z"/><path fill="#E0E6DF" d="M88.553 263.798c-3.446 0-6.245-2.793-6.245-6.246 0-3.445 2.799-6.236 6.245-6.236s6.245 2.791 6.245 6.236c-.001 3.453-2.799 6.246-6.245 6.246z"/><path fill="#3E414C" d="M172.211 263.632c-3.354 0-6.078-2.721-6.078-6.08 0-3.354 2.725-6.068 6.078-6.068 3.35 0 6.072 2.715 6.072 6.068.001 3.36-2.722 6.08-6.072 6.08zM6.078 263.632c-3.354 0-6.078-2.719-6.078-6.078 0-3.354 2.725-6.07 6.078-6.07 3.354 0 6.074 2.717 6.074 6.07 0 3.36-2.719 6.078-6.074 6.078z"/></g></g></svg>