<svg xmlns="http://www.w3.org/2000/svg" viewBox="0 0 178.864 174.118"><path clip-rule="evenodd" stroke="#F05B5B" stroke-width="4" stroke-miterlimit="10" fill="none" d="M132.864 127.069l-44.001 14.611v-124.21l44.001-12.798zM88.863 17.47l-44-14.694v125.947l44 12.957zM176.864 19.044l-44-14.372v122.397l44 12.582z"/><g stroke="#F05B5B" stroke-width="4" stroke-miterlimit="10" fill="none"><path d="M98.53 35.017l22.668-7M99.448 54.097l22.666-7M99.448 73.177l22.666-7M99.448 92.932l22.666-6.999M98.53 112.69l22.668-7"/></g><path fill="#F05D5B" d="M55.613 23.484l22.334 8.033v30.134l-22.419-8.225zM143.741 89.432l22.332 7.43v27.873l-22.418-7.61z"/><g fill-rule="evenodd" clip-rule="evenodd"><path fill="#3E414C" d="M7.283 156.475h164.299v4.242h-164.299zM89.106 174.118c-8.579 0-15.527-6.951-15.527-15.527 0-8.57 6.948-15.516 15.527-15.516 8.586 0 15.529 6.945 15.529 15.516 0 8.576-6.943 15.527-15.529 15.527z"/><path fill="#E0E6DF" d="M89.108 164.836c-3.446 0-6.245-2.793-6.245-6.244 0-3.447 2.799-6.238 6.245-6.238 3.447 0 6.246 2.791 6.246 6.238 0 3.451-2.799 6.244-6.246 6.244z"/><path fill="#3E414C" d="M172.766 164.67c-3.354 0-6.078-2.719-6.078-6.078 0-3.354 2.725-6.07 6.078-6.07 3.35 0 6.074 2.717 6.074 6.07 0 3.36-2.724 6.078-6.074 6.078zM6.079 164.67c-3.354 0-6.079-2.719-6.079-6.078 0-3.354 2.725-6.07 6.079-6.07 3.354 0 6.073 2.717 6.073 6.07 0 3.36-2.719 6.078-6.073 6.078z"/></g></svg>