<svg xmlns="http://www.w3.org/2000/svg" viewBox="0 0 267.489 247.833"><g fill-rule="evenodd" clip-rule="evenodd"><path fill="#E1E7E0" d="M173.581 215.778l-2.043 22.545-171.538-168.82.133-69.503h164.865l29.659 29.659z"/><path fill="#6A512C" d="M169.136 238.44l-95.793-95.785-.854-.856.854-.859 95.793-95.784.854-.856.854.856 95.793 95.784.854.859-.854.856-95.793 95.785-.854.859-.854-.859zm-93.209-96.641l94.063 94.068 94.074-94.068-94.075-94.069-94.062 94.069zm97.95 87.471c4.825-25.45 15.837-46.651 28.462-67.672s8.677-43.496-8.725-63.654h-48.176c-17.401 20.158-21.349 42.633-8.725 63.654 12.625 21.021 24.076 42.1 28.9 67.551-3.082.937-5.311 3.583-5.606 7.163-.297 3.579 3.308 7.379 7.385 7.379v-62.946c-2.43-.732-4.208-2.996-4.208-5.654v-49.793c0-3.248 2.655-5.903 5.903-5.903l.438.015.438-.015c3.248 0 5.903 2.655 5.903 5.903v49.793c0 2.658-1.777 4.922-4.208 5.654v62.946c4.078 0 7.516-3.936 7.386-7.379-.129-3.447-1.99-5.714-5.167-7.042z"/><path fill="#412531" d="M195.072 97.944h-51.091c-.83 0-1.518-.685-1.518-1.523v-8.508c0-.836.688-1.521 1.518-1.521h51.091c.829 0 1.517.685 1.517 1.521v8.508c0 .839-.688 1.523-1.517 1.523z"/><path fill="#FCD043" d="M144.396 29.662h50.262v56.731h-50.262z"/><path fill="#876837" d="M194.657 86.393h-50.261v-50.262z"/><path fill="#6A512C" d="M111.335 236.069h117.309v3.028h-117.309zm58.654 11.764c-5.667 0-10.254-4.59-10.254-10.254 0-5.66 4.587-10.247 10.254-10.247 5.666 0 10.254 4.587 10.254 10.247 0 5.665-4.588 10.254-10.254 10.254z"/><circle fill="#E1E7E0" cx="169.989" cy="237.582" r="4.337"/><circle fill="#6A512C" cx="228.644" cy="237.582" r="4.337"/><circle fill="#6A512C" cx="111.335" cy="237.582" r="4.337"/><path fill="#412531" d="M73.343 145.278c-2.383 0-4.327-1.944-4.327-4.338s1.944-4.339 4.327-4.339c2.406 0 4.338 1.944 4.338 4.339s-1.932 4.338-4.338 4.338z"/></g></svg>