<svg xmlns="http://www.w3.org/2000/svg" viewBox="0 0 178.839 214.912"><g fill-rule="evenodd" clip-rule="evenodd"><path fill="#3E414C" d="M7.283 111.096h164.3v4.24h-164.3zM89.107 128.739c-8.58 0-15.527-6.953-15.527-15.529 0-8.57 6.947-15.515 15.527-15.515 8.583 0 15.529 6.945 15.529 15.515 0 8.576-6.945 15.529-15.529 15.529z"/><path fill="#E0E6DF" d="M89.108 119.458c-3.446 0-6.245-2.793-6.245-6.246 0-3.445 2.799-6.236 6.245-6.236s6.245 2.791 6.245 6.236c0 3.453-2.799 6.246-6.245 6.246z"/><path fill="#3E414C" d="M172.767 119.29c-3.354 0-6.078-2.719-6.078-6.078 0-3.354 2.725-6.07 6.078-6.07 3.35 0 6.072 2.717 6.072 6.07 0 3.359-2.722 6.078-6.072 6.078zM6.078 119.29c-3.354 0-6.078-2.719-6.078-6.078 0-3.354 2.725-6.07 6.078-6.07 3.354 0 6.074 2.717 6.074 6.07 0 3.359-2.719 6.078-6.074 6.078z"/></g><path stroke="#F05B5B" stroke-width="4" stroke-miterlimit="10" d="M152.853 184.229c-4.797-30.869-16.313-28.354-31.922-27.641-10.898.5-14.457-24.561-15.545-48.375-1.088-23.813.166-49.092 11.066-49.592 15.607-.711 27.305.736 29.256-30.441 1.959-31.181-20.281-26.162-35.404-25.471-17.451.797-39.834 42.689-36.898 106.969 2.943 64.279 29.185 102.986 46.507 103.152 15.137.145 37.729 2.278 32.94-28.601zm-28.994-158.11l-1.443-.529c-1.158-.454-2.525-1.02-4.117-1.563-.768-.23-1.617-.498-2.475-.65-.873-.18-1.783-.309-2.721-.299-.961-.057-1.912.122-2.957.269-.971.325-2.064.563-3.063 1.14-1.074.428-2.016 1.189-3.033 1.857-.979.725-1.848 1.615-2.773 2.412-1.664 1.801-3.18 3.605-4.301 5.301-1.254 1.619-2.033 3.243-2.686 4.262l-.98 1.656.355-1.893c.271-1.203.436-2.922 1.086-4.984.51-2.117 1.371-4.512 2.463-7.089.672-1.229 1.293-2.577 2.131-3.866.902-1.246 1.752-2.609 2.959-3.758 1.082-1.262 2.465-2.271 3.834-3.315 1.469-.882 2.979-1.761 4.568-2.313 1.561-.627 3.166-1.016 4.65-1.279 1.512-.285 2.898-.385 4.195-.472 2.52-.095 4.541.003 5.748.03.678.028.994-.002 1.305.002l.432-.006-2.635 15.277-.542-.19zm8.943 176.135c-1.293.201-3.305.502-5.799.646-1.279.023-2.629.084-4.117-.055-1.453-.063-3.031-.35-4.592-.688-1.582-.381-3.156-.908-4.678-1.617-1.494-.713-2.973-1.533-4.254-2.525l-1.891-1.494-1.639-1.664c-1.119-1.047-1.898-2.313-2.762-3.41-.842-1.113-1.416-2.326-2.066-3.383-.664-1.043-1.057-2.195-1.523-3.15-.943-1.939-1.385-3.582-1.801-4.732l-.611-1.805s.5 1.951 1.26 2.896c.773.92 1.803 2.367 3.262 3.756.734.699 1.383 1.529 2.307 2.229.898.699 1.736 1.539 2.758 2.184 1.027.621 1.977 1.396 3.105 1.844l1.611.764 1.666.52c4.447 1.32 8.529.221 11.506-1.09 1.516-.693 2.771-1.381 3.746-1.924l1.627-.891 4.82 13.301-1.935.288z" fill="none"/></svg>