<svg xmlns="http://www.w3.org/2000/svg" viewBox="197.083 722.533 666.638 214.08" enable-background="new 197.083 722.533 666.638 214.08"><path fill="#2A2525" d="M299.46 927.16l-6.465-25.484h3.479l3.025 12.894c.756 3.176 1.437 6.352 1.891 8.81h.076c.416-2.533 1.21-5.559 2.08-8.848l3.403-12.855h3.441l3.101 12.931c.718 3.025 1.399 6.05 1.777 8.734h.076c.529-2.798 1.248-5.634 2.042-8.81l3.365-12.855h3.365l-7.222 25.484h-3.441l-3.214-13.271c-.794-3.252-1.323-5.748-1.664-8.318h-.076c-.454 2.533-1.021 5.028-1.966 8.318l-3.63 13.271h-3.443zM397.22 915.212h-9.906v9.188h11.041v2.76h-14.33v-25.484h13.763v2.76h-10.474v8.054h9.906v2.722zM459.359 902.016c1.437-.303 3.705-.529 6.012-.529 3.289 0 5.407.567 6.995 1.853 1.323.983 2.117 2.496 2.117 4.5 0 2.457-1.626 4.612-4.311 5.596v.076c2.42.604 5.256 2.608 5.256 6.39 0 2.193-.869 3.856-2.155 5.104-1.777 1.626-4.65 2.382-8.81 2.382-2.269 0-4.009-.151-5.104-.302v-25.07zm3.289 10.435h2.987c3.479 0 5.521-1.814 5.521-4.272 0-2.987-2.269-4.159-5.597-4.159-1.512 0-2.382.113-2.911.227v8.204zm0 12.214c.643.113 1.588.15 2.761.15 3.402 0 6.541-1.247 6.541-4.953 0-3.479-2.987-4.915-6.579-4.915h-2.723v9.718z"/><path fill="#ADD056" d="M539.496 898.802v37.812h-2.533v-37.812h2.533z"/><path fill="#2A2525" d="M606.473 919.145l-2.646 8.016h-3.403l8.659-25.484h3.97l8.696 25.484h-3.517l-2.722-8.016h-9.037zm8.356-2.572l-2.496-7.336c-.566-1.663-.945-3.176-1.323-4.65h-.075c-.378 1.513-.794 3.063-1.286 4.613l-2.495 7.373h7.675zM682.225 902.016c1.663-.34 4.046-.529 6.314-.529 3.517 0 5.785.643 7.373 2.08 1.285 1.134 2.004 2.873 2.004 4.84 0 3.364-2.117 5.596-4.802 6.503v.113c1.966.681 3.138 2.496 3.743 5.143.832 3.555 1.437 6.012 1.966 6.995h-3.403c-.415-.719-.982-2.911-1.701-6.088-.756-3.517-2.117-4.84-5.104-4.953h-3.101v11.041h-3.289v-25.145zm3.289 11.608h3.365c3.517 0 5.747-1.929 5.747-4.84 0-3.29-2.382-4.727-5.86-4.765-1.588 0-2.723.151-3.252.303v9.302zM764.479 904.474h-7.752v-2.798h18.868v2.798h-7.789v22.687h-3.327v-22.687z"/><path fill="#FDD041" d="M205.488 807.295c5.604-7.939 12.843-13.776 21.716-17.513l-17.279-9.808c4.98-4.046 10.584-7.238 16.813-9.573 6.225-2.335 12.843-3.503 19.848-3.503 7.625 0 14.904 1.325 21.832 3.97 6.926 2.648 13.037 6.345 18.33 11.092 5.291 4.75 9.534 10.391 12.727 16.929 3.189 6.538 4.787 13.624 4.787 21.249v62.578h-58.844c-6.694 0-12.959-1.283-18.797-3.853-5.837-2.568-10.938-6.03-15.294-10.391-4.36-4.356-7.822-9.457-10.392-15.294-2.568-5.838-3.852-12.103-3.852-18.797 0-10.117 2.801-19.148 8.405-27.086z"/><path fill="#E75C43" d="M324.104 801.388c2.646-6.68 6.382-12.584 11.209-17.709 4.823-5.127 10.544-9.282 17.162-12.468 6.615-3.185 13.813-4.779 21.6-4.779 7.005 0 13.854 1.36 20.548 4.079 6.691 2.722 12.687 6.721 17.979 12l-8.172 7.924c5.757 5.283 9.96 11.07 12.609 17.359 2.645 6.295 3.969 12.705 3.969 19.229 0 6.99-1.364 13.828-4.086 20.508-2.726 6.68-6.538 12.623-11.441 17.826-4.904 5.203-10.665 9.398-17.279 12.584-6.619 3.186-13.895 4.775-21.833 4.775-7.005 0-13.817-1.32-20.432-3.962-6.618-2.642-12.492-6.681-17.63-12.116l8.406-7.925c-5.761-5.279-9.963-11.106-12.609-17.476-2.648-6.371-3.969-12.818-3.969-19.345.001-6.991 1.321-13.824 3.969-20.504z"/><path fill="#3C3F4B" d="M437.818 722.533h47.167v48.802c6.225-2.955 12.687-4.437 19.381-4.437 6.072 0 11.829 1.168 17.279 3.503 5.447 2.335 10.194 5.527 14.244 9.573 4.046 4.05 7.239 8.797 9.573 14.244 2.336 5.45 3.504 11.208 3.504 17.278v71.219h-111.148v-160.182z"/><path fill="#E75C43" d="M673.887 801.457c0 9.187-1.792 18.177-5.371 26.97-3.583 8.797-8.173 16.893-13.776 24.284-5.604 7.396-11.832 13.74-18.681 19.03-6.852 5.295-13.543 8.953-20.081 10.975-7.319-2.488-14.44-6.574-21.365-12.258-6.929-5.682-13.116-12.219-18.563-19.615-5.451-7.392-9.808-15.33-13.076-23.816-3.27-8.483-4.904-16.93-4.904-25.336v-34.792h115.818v34.558z"/><path fill="#3C3F4B" d="M688.594 736.544c1.244-2.803 2.919-5.254 5.021-7.355s4.59-3.736 7.473-4.904c2.878-1.168 5.954-1.751 9.223-1.751 3.27 0 6.342.583 9.224 1.751 2.879 1.168 5.37 2.803 7.472 4.904s3.773 4.553 5.021 7.355c1.244 2.801 1.868 5.837 1.868 9.105 0 4.828-1.324 9.146-3.97 12.96-2.648 3.816-6.07 6.578-10.273 8.289h14.243v115.817h-47.168v-115.817h14.011c-4.05-1.711-7.396-4.473-10.041-8.289-2.648-3.813-3.97-8.132-3.97-12.96-.002-3.268.619-6.304 1.866-9.105z"/><path fill="#FDD041" d="M748.137 824.808c0-7.939 1.518-15.447 4.554-22.533 3.035-7.082 7.158-13.229 12.375-18.447 5.214-5.213 11.361-9.34 18.447-12.375 7.081-3.035 14.594-4.554 22.533-4.554 7.625 0 14.903 1.325 21.832 3.97 6.925 2.648 13.036 6.345 18.33 11.092 5.29 4.75 9.533 10.391 12.726 16.929 3.189 6.538 4.787 13.624 4.787 21.249v62.578h-115.584v-57.909z"/><path fill="#fff" d="M247.765 863.985c-2.979 0-5.817-.384-8.513-1.147-2.698-.764-5.092-1.911-7.185-3.441-2.095-1.528-3.764-3.42-5.011-5.676-1.249-2.252-1.872-4.869-1.872-7.849v-.241c0-3.14.702-5.917 2.108-8.332 1.405-2.415 3.313-4.426 5.722-6.037 2.408-1.609 5.24-2.817 8.493-3.623 3.252-.804 6.766-1.207 10.539-1.207 4.257 0 8.332.343 12.227 1.025 3.894.686 7.368 1.591 10.42 2.717v-5.071c0-7.324-2.034-12.739-6.098-16.241-4.066-3.502-9.641-5.252-16.724-5.252-3.785 0-7.287.463-10.505 1.389-3.221.926-6.4 2.154-9.54 3.682l-.966-2.173c3.381-1.609 6.762-2.897 10.143-3.864 3.381-.966 7.043-1.449 10.988-1.449 8.453 0 14.893 2.215 19.321 6.642 1.851 1.853 3.32 4.227 4.407 7.124 1.087 2.898 1.63 6.24 1.63 10.023v37.554h-2.657l.121-14.249c-.645 1.771-1.69 3.583-3.139 5.434-1.449 1.854-3.302 3.544-5.555 5.072-2.255 1.529-4.912 2.777-7.97 3.743-3.06.964-6.52 1.447-10.384 1.447zm.07-2.415c4.013 0 7.666-.604 10.958-1.812 3.292-1.208 6.123-2.796 8.493-4.77 2.368-1.972 4.194-4.227 5.479-6.763 1.285-2.535 1.928-5.132 1.928-7.788v-7.729c-3.211-1.208-6.625-2.152-10.237-2.837-3.615-.684-7.709-1.027-12.285-1.027-3.374 0-6.545.344-9.515 1.027-2.972.685-5.562 1.731-7.77 3.139-2.208 1.41-3.934 3.16-5.179 5.253-1.246 2.095-1.866 4.51-1.866 7.245v.242c0 2.656.542 4.971 1.626 6.943 1.083 1.973 2.549 3.622 4.396 4.95 1.845 1.329 3.974 2.315 6.383 2.958 2.408.649 4.938.969 7.589.969zM369.73 857.623c-4.268 0-8.555-.785-12.86-2.355-4.308-1.569-8.151-3.762-11.532-6.58l1.57-2.053c3.381 2.818 7.064 4.951 11.049 6.399 3.985 1.449 7.949 2.174 11.895 2.174 2.735 0 5.271-.321 7.607-.966 2.333-.644 4.347-1.57 6.038-2.777 1.69-1.208 3.019-2.637 3.985-4.287.966-1.648 1.449-3.441 1.449-5.373v-.242c0-2.334-.564-4.287-1.69-5.856-1.128-1.569-2.638-2.897-4.528-3.984-1.893-1.087-4.026-1.993-6.4-2.718-2.375-.725-4.77-1.448-7.185-2.173-3.061-.885-5.898-1.771-8.513-2.657-2.617-.885-4.851-1.932-6.702-3.139-1.853-1.208-3.302-2.637-4.347-4.287-1.047-1.648-1.57-3.684-1.57-6.098v-.242c0-2.092.502-4.063 1.509-5.916 1.006-1.852 2.415-3.481 4.227-4.891 1.811-1.408 4.024-2.516 6.641-3.321 2.615-.804 5.495-1.208 8.634-1.208 3.381 0 6.923.564 10.626 1.691 3.702 1.128 7.164 2.818 10.385 5.071l-1.449 2.174c-2.979-2.093-6.179-3.702-9.6-4.83-3.423-1.126-6.743-1.69-9.962-1.69-5.554 0-10.003 1.229-13.343 3.683-3.342 2.456-5.011 5.494-5.011 9.116v.242c0 2.014.501 3.725 1.509 5.132 1.005 1.409 2.394 2.638 4.166 3.683 1.77 1.048 3.804 1.975 6.098 2.777 2.294.807 4.77 1.57 7.427 2.295 2.977.806 5.796 1.672 8.453 2.596 2.656.927 4.97 2.014 6.943 3.261 1.972 1.249 3.521 2.777 4.649 4.589 1.126 1.811 1.69 4.006 1.69 6.58v.242c0 2.336-.543 4.488-1.63 6.461-1.086 1.973-2.617 3.664-4.588 5.07-1.974 1.41-4.287 2.496-6.943 3.261s-5.557 1.146-8.697 1.146zM467.658 774.387h2.657v44.316c.481-1.852 1.343-3.822 2.588-5.917 1.246-2.093 2.872-4.046 4.879-5.856 2.007-1.812 4.396-3.301 7.167-4.469 2.77-1.166 5.962-1.75 9.578-1.75 4.094 0 7.709.664 10.841 1.992 3.132 1.328 5.76 3.2 7.888 5.615s3.755 5.313 4.88 8.693c1.124 3.382 1.686 7.166 1.686 11.352v34.173h-2.656v-33.932c0-3.782-.48-7.245-1.441-10.385-.962-3.14-2.403-5.815-4.324-8.03-1.922-2.213-4.326-3.943-7.209-5.191-2.883-1.248-6.207-1.872-9.969-1.872-3.366 0-6.489.664-9.372 1.992-2.883 1.328-5.406 3.181-7.568 5.555-2.162 2.376-3.864 5.132-5.105 8.271-1.242 3.14-1.862 6.521-1.862 10.144v33.448h-2.657v-88.149zM588.379 796.16h2.777l26.203 57.719 26.082-57.719h2.657l-27.773 60.859h-1.933l-28.013-60.859zM708.778 778.01h3.864v6.883h-3.864v-6.883zm.605 24.15h2.656v60.376h-2.656v-60.376zM779.658 802.16h2.656v16.543c.48-1.852 1.344-3.822 2.588-5.917 1.246-2.093 2.872-4.046 4.88-5.856 2.007-1.812 4.396-3.301 7.167-4.469 2.771-1.166 5.963-1.75 9.578-1.75 4.094 0 7.709.664 10.842 1.992 3.131 1.328 5.76 3.2 7.888 5.615s3.755 5.313 4.88 8.693c1.124 3.382 1.686 7.166 1.686 11.352v34.173h-2.656v-33.932c0-3.782-.48-7.245-1.441-10.385-.962-3.14-2.403-5.815-4.324-8.03-1.922-2.213-4.326-3.943-7.209-5.191s-6.207-1.872-9.97-1.872c-3.366 0-6.489.664-9.372 1.992s-5.405 3.181-7.567 5.555c-2.162 2.376-3.864 5.132-5.105 8.271s-1.862 6.521-1.862 10.144v33.448h-2.656v-60.376z"/></svg>