<svg xmlns="http://www.w3.org/2000/svg" viewBox="0 0 1024 1024" enable-background="new 0 0 1024 1024">
    <path fill="#E1E7E0" d="M664.502 863.664l-7.821 86.307-656.681-646.277.509-266.07h631.135l113.54 113.541-80.682 712.499z" />
    <path fill="#6A512C" d="M647.485 950.418l-366.714-366.684-3.27-3.276 3.27-3.289 366.714-366.68 3.27-3.277 3.27 3.277 366.714 366.68 3.27 3.289-3.27 3.276-366.715 366.684-3.27 3.289-3.269-3.289zm-356.822-369.96l360.092 360.11 360.134-360.11-360.138-360.115-360.088 360.115zm350.146 390.063v-240.97c-9.302-2.803-16.108-11.47-16.108-21.645v-190.617c0-12.435 10.164-22.599 22.598-22.599l1.677.058 1.677-.058c12.434 0 22.598 10.164 22.598 22.599v190.617c0 10.175-6.803 18.842-16.108 21.645v240.97l8.494-55.207c18.472-97.427 60.627-178.589 108.958-259.062s33.218-166.511-33.4-243.68h-184.43c-66.614 77.169-81.728 163.207-33.4 243.68 48.331 80.473 92.167 161.167 110.635 258.599l6.809 55.67z" />
    <path fill="#412531" d="M746.773 412.572h-195.585c-3.178 0-5.812-2.622-5.812-5.83v-32.57c0-3.201 2.634-5.823 5.812-5.823h195.586c3.174 0 5.808 2.623 5.808 5.823v32.57c-.001 3.212-2.635 5.83-5.809 5.83z" />
    <path fill="#FCD043" d="M552.776 151.175h192.412v217.177h-192.412v-217.177z" />
    <path fill="#876837" d="M745.185 368.353h-192.409v-192.413l192.409 192.413z" />
    <path fill="#6A512C" d="M426.212 941.342h449.082v11.592h-449.082v-11.592zm224.539 45.035c-21.694 0-39.254-17.572-39.254-39.255 0-21.667 17.56-39.228 39.254-39.228 21.69 0 39.254 17.561 39.254 39.228 0 21.687-17.564 39.255-39.254 39.255z" />
    <circle fill="#E1E7E0" cx="650.751" cy="947.134" r="16.603" />
    <circle fill="#6A512C" cx="875.294" cy="947.134" r="16.603" />
    <circle fill="#6A512C" cx="426.212" cy="947.134" r="16.603" />
    <path fill="#412531" d="M280.771 593.776c-9.123 0-16.565-7.442-16.565-16.607 0-9.164 7.442-16.61 16.565-16.61 9.21 0 16.606 7.442 16.606 16.61.001 9.169-7.395 16.607-16.606 16.607z" />
</svg>