<svg xmlns="http://www.w3.org/2000/svg" viewBox="0 0 85.133 86.885"><path fill-rule="evenodd" clip-rule="evenodd" d="M73.133 21.549c-15.244-14.216-39.125-13.384-53.342 1.86-13.488 14.464-13.419 36.698-.354 51.08l-3.117 3.341c-1.107 1.188-1.043 3.064.145 4.172l1.852 1.727c1.186 1.107 3.063 1.041 4.17-.146l3.275-3.512c15.166 10.639 36.236 8.754 49.23-5.182 14.217-15.243 13.383-39.124-1.859-53.34z" opacity=".15"/><g fill-rule="evenodd" clip-rule="evenodd"><circle fill="#fff" cx="37.741" cy="37.741" r="37.74"/><circle fill="#E6E6E6" cx="37.741" cy="37.741" r="35.421"/><path fill="#fff" d="M8.665 72.319l-1.851-1.726c-1.188-1.107-1.253-2.984-.146-4.172l12.654-13.569c1.107-1.187 2.984-1.253 4.172-.146l1.851 1.727c1.187 1.106 1.252 2.983.145 4.171l-12.654 13.57c-1.107 1.187-2.984 1.253-4.171.145z"/><path fill="#E6E6E6" d="M9.33 70.929l-1.175-1.096c-.754-.703-.796-1.896-.093-2.65l11.88-12.738c.703-.754 1.896-.795 2.649-.092l1.176 1.096c.754.703.795 1.896.092 2.65l-11.879 12.737c-.704.755-1.896.796-2.65.093z"/><circle fill="#fff" cx="37.741" cy="37.741" r="29.728"/><circle fill="#B3B3B3" cx="37.741" cy="37.741" r="26.777"/><circle fill="#886734" cx="37.742" cy="37.741" r="22.77"/><circle fill="#694F28" cx="37.742" cy="37.741" r="16.445"/><path fill="#BD9D6E" d="M17.569 36.072c.359-4.379 2.14-8.673 5.369-12.136 7.624-8.176 20.433-8.622 28.607-.998 3.463 3.229 5.539 7.389 6.202 11.732-.93-3.718-2.907-7.22-5.919-10.027-8.303-7.743-21.311-7.289-29.054 1.014-2.807 3.012-4.536 6.642-5.205 10.415z"/></g></svg>