<svg xmlns="http://www.w3.org/2000/svg" viewBox="0 0 666.637 160.184">
    <path fill="#FCD042" d="M8.405 84.762c5.604-7.939 12.843-13.776 21.716-17.514l-17.279-9.808c4.98-4.046 10.584-7.238 16.813-9.573 6.225-2.335 12.843-3.503 19.848-3.503 7.625 0 14.904 1.325 21.832 3.97 6.926 2.648 13.037 6.346 18.33 11.092 5.291 4.75 9.534 10.392 12.727 16.93 3.189 6.538 4.787 13.624 4.787 21.249v62.578h-58.845c-6.694 0-12.959-1.283-18.797-3.854-5.837-2.567-10.938-6.03-15.294-10.391-4.36-4.356-7.822-9.457-10.392-15.294-2.568-5.836-3.851-12.101-3.851-18.795 0-10.119 2.801-19.149 8.405-27.087zM127.021 78.854c2.646-6.681 6.382-12.584 11.209-17.709 4.823-5.127 10.544-9.282 17.162-12.469 6.615-3.185 13.813-4.778 21.6-4.778 7.005 0 13.854 1.359 20.548 4.079 6.691 2.722 12.687 6.721 17.979 12l-8.172 7.924c5.757 5.283 9.96 11.07 12.609 17.358 2.645 6.296 3.969 12.705 3.969 19.229 0 6.99-1.364 13.828-4.086 20.508-2.726 6.68-6.538 12.623-11.441 17.826-4.904 5.203-10.665 9.398-17.279 12.584-6.619 3.186-13.895 4.775-21.833 4.775-7.005 0-13.817-1.32-20.432-3.963-6.618-2.642-12.492-6.681-17.63-12.115l8.406-7.926c-5.761-5.278-9.963-11.105-12.609-17.476-2.648-6.371-3.969-12.818-3.969-19.345.001-6.988 1.321-13.821 3.969-20.502zM240.735 0h47.167v48.802c6.225-2.954 12.687-4.437 19.381-4.437 6.072 0 11.829 1.168 17.279 3.503 5.446 2.335 10.194 5.527 14.243 9.573 4.047 4.05 7.24 8.797 9.574 14.244 2.336 5.449 3.504 11.208 3.504 17.277v71.22h-111.148v-160.182zM476.803 78.924c0 9.188-1.791 18.178-5.371 26.971-3.582 8.797-8.172 16.893-13.775 24.283-5.604 7.396-11.832 13.74-18.682 19.03-6.852 5.295-13.543 8.953-20.08 10.976-7.318-2.488-14.439-6.574-21.365-12.259-6.93-5.682-13.115-12.219-18.563-19.614-5.451-7.393-9.809-15.33-13.076-23.816-3.27-8.483-4.904-16.93-4.904-25.336v-34.794h115.818v34.559h-.002zM491.51 14.01c1.244-2.803 2.92-5.254 5.021-7.354s4.59-3.736 7.473-4.904c2.877-1.169 5.954-1.752 9.223-1.752s6.342.583 9.225 1.751c2.879 1.168 5.369 2.804 7.471 4.904 2.104 2.101 3.773 4.553 5.021 7.354 1.244 2.802 1.867 5.838 1.867 9.105 0 4.828-1.322 9.146-3.969 12.96-2.648 3.816-6.07 6.578-10.273 8.289h14.242v115.817h-47.168v-115.815h14.012c-4.049-1.711-7.396-4.473-10.041-8.289-2.648-3.813-3.971-8.132-3.971-12.96 0-3.268.621-6.304 1.867-9.106zM551.053 102.274c0-7.939 1.52-15.447 4.555-22.533 3.035-7.082 7.158-13.229 12.375-18.447 5.215-5.213 11.361-9.34 18.447-12.375 7.08-3.035 14.594-4.554 22.533-4.554 7.625 0 14.902 1.325 21.832 3.97 6.924 2.648 13.035 6.346 18.33 11.092 5.289 4.75 9.533 10.392 12.727 16.93 3.188 6.538 4.785 13.624 4.785 21.249v62.578h-115.584v-57.91z" />
    <path fill="#fff" d="M63.121 140.003l-.846-7.365h-.361c-3.261 4.589-9.54 8.693-17.873 8.693-11.834 0-17.871-8.332-17.871-16.785 0-14.129 12.559-21.856 35.141-21.735v-1.208c0-4.831-1.329-13.525-13.283-13.525-5.436 0-11.11 1.69-15.217 4.347l-2.414-7.004c4.83-3.14 11.834-5.192 19.2-5.192 17.872 0 22.22 12.196 22.22 23.91v21.856c0 5.072.241 10.023.966 14.008h-9.662zm-1.57-29.827c-11.592-.241-24.755 1.813-24.755 13.163 0 6.884 4.589 10.145 10.022 10.145 7.608 0 12.439-4.83 14.129-9.781.363-1.087.604-2.294.604-3.381v-10.146zM150.309 123.135c3.14 2.054 8.695 4.228 14.008 4.228 7.729 0 11.352-3.864 11.352-8.695 0-5.072-3.02-7.849-10.868-10.748-10.507-3.743-15.457-9.54-15.457-16.543 0-9.419 7.607-17.147 20.167-17.147 5.916 0 11.109 1.69 14.369 3.623l-2.656 7.729c-2.295-1.449-6.521-3.381-11.955-3.381-6.279 0-9.781 3.623-9.781 7.97 0 4.83 3.502 7.004 11.109 9.902 10.145 3.864 15.336 8.936 15.336 17.631 0 10.264-7.969 17.51-21.856 17.51-6.4 0-12.317-1.569-16.423-3.984l2.655-8.095zM268.16 54.265h10.627v36.469h.241c1.69-3.02 4.347-5.675 7.608-7.487 3.139-1.812 6.883-3.019 10.867-3.019 7.85 0 20.408 4.831 20.408 24.997v34.777h-10.627v-33.57c0-9.419-3.502-17.39-13.524-17.39-6.884 0-12.317 4.831-14.249 10.627-.604 1.449-.725 3.02-.725 5.072v35.261h-10.626v-85.737zM399.266 75.556l11.473 32.846c1.932 5.313 3.502 10.144 4.709 14.974h.361c1.33-4.83 3.02-9.66 4.951-14.974l11.352-32.846h11.109l-22.943 58.446h-10.143l-22.221-58.446h11.352zM520.995 65.133c.121 3.623-2.535 6.521-6.762 6.521-3.744 0-6.4-2.898-6.4-6.521 0-3.742 2.777-6.642 6.641-6.642 3.985 0 6.521 2.899 6.521 6.642zm-11.834 74.87v-58.447h10.627v58.446h-10.627zM580.161 97.375c0-6.038-.121-10.989-.482-15.818h9.418l.604 9.66h.242c2.896-5.555 9.658-10.988 19.32-10.988 8.092 0 20.648 4.831 20.648 24.876v34.898h-10.627v-33.69c0-9.419-3.502-17.27-13.523-17.27-7.004 0-12.438 4.951-14.25 10.868-.482 1.329-.725 3.14-.725 4.951v35.141h-10.625v-42.628z" />
</svg>