<svg xmlns="http://www.w3.org/2000/svg" viewBox="0 0 204.129 223.015"><path fill-rule="evenodd" clip-rule="evenodd" fill="#ED5156" d="M43.799 59.486h30.051v24.244h-30.051zM84.876 59.486h30.21v24.244h-30.21zM126.083 59.486h30.051v24.244h-30.051zM43.895 20.74h112.334v29.071h-112.334zM43.799 93.405h112.334v4.165h-112.334zM43.895 104.831h112.334v4.164h-112.334z"/><g clip-rule="evenodd"><path stroke="#F05A5B" stroke-width="4" stroke-miterlimit="10" d="M196.524 189.576h-188.92c-3.07 0-5.604-2.537-5.604-5.631v-31.461c0-3.094 2.534-5.625 5.604-5.625h188.919c3.072 0 5.605 2.531 5.605 5.625v31.461c.001 3.094-2.532 5.631-5.604 5.631z" fill="none"/><g fill-rule="evenodd"><path fill="#3E414C" d="M18.618 205.373h164.3v4.24h-164.3zM100.441 223.015c-8.579 0-15.526-6.953-15.526-15.529 0-8.57 6.947-15.516 15.526-15.516 8.584 0 15.53 6.945 15.53 15.516 0 8.576-6.945 15.529-15.53 15.529z"/><path fill="#E0E6DF" d="M100.444 213.734c-3.447 0-6.246-2.793-6.246-6.246 0-3.445 2.799-6.236 6.246-6.236 3.445 0 6.244 2.791 6.244 6.236 0 3.453-2.799 6.246-6.244 6.246z"/><path fill="#3E414C" d="M184.102 213.566c-3.354 0-6.078-2.719-6.078-6.078 0-3.354 2.725-6.07 6.078-6.07 3.35 0 6.072 2.717 6.072 6.07 0 3.359-2.722 6.078-6.072 6.078zM17.413 213.566c-3.354 0-6.078-2.719-6.078-6.078 0-3.354 2.725-6.07 6.078-6.07 3.354 0 6.074 2.717 6.074 6.07 0 3.359-2.719 6.078-6.074 6.078z"/></g><path stroke="#F05A5B" stroke-width="4" stroke-miterlimit="10" d="M170.833 2c.631 0 1.145.512 1.145 1.144v123.986c0 .633-.514 1.145-1.145 1.145h-137.564c-.632 0-1.144-.512-1.144-1.145v-123.986c0-.632.512-1.144 1.144-1.144h137.564z" fill="none"/></g></svg>