<svg xmlns="http://www.w3.org/2000/svg" viewBox="0 0 115.751 80.113"><g fill-rule="evenodd" clip-rule="evenodd"><path fill="#3E414C" d="M4.713 28.813h106.343v2.744h-106.343z"/><circle fill="#3E414C" cx="57.674" cy="30.187" r="8.048"/><path fill="#E0E6DF" d="M57.674 33.422c-1.786 0-3.237-1.448-3.237-3.238 0-1.787 1.451-3.232 3.237-3.232 1.787 0 3.238 1.445 3.238 3.232 0 1.79-1.452 3.238-3.238 3.238z"/><path fill="#3E414C" d="M111.822 34.117c-2.172 0-3.936-1.76-3.936-3.935 0-2.17 1.764-3.93 3.936-3.93 2.168 0 3.93 1.76 3.93 3.93-.001 2.175-1.762 3.935-3.93 3.935zM3.934 34.117c-2.17 0-3.934-1.76-3.934-3.935 0-2.17 1.764-3.93 3.934-3.93 2.172 0 3.932 1.76 3.932 3.93-.001 2.175-1.761 3.935-3.932 3.935z"/></g><path stroke="#F05B5B" stroke-width="3" stroke-miterlimit="10" fill="none" d="M69.427 10.594l-11.558-8.716-11.514 8.681-26.032 19.629 26.032 19.628 11.514 8.68 11.558-8.715 25.987-19.593zM57.757 69.001l-11.7-9.058-23.894 18.67h71.282l-23.942-18.707zM96.427 73.466l-24.297-18.441 24.297-18.442zM19.312 73.468l24.294-18.445-24.3-18.438z"/></svg>