<svg xmlns="http://www.w3.org/2000/svg" viewBox="0.568 3.296 482.602 37.813" enable-background="new 0.568 3.296 482.602 37.813">
    <path fill="white" d="M7.033 31.654l-6.465-25.484h3.479l3.024 12.895c.757 3.176 1.437 6.352 1.891 8.81h.075c.416-2.533 1.211-5.559 2.08-8.848l3.403-12.857h3.441l3.101 12.932c.718 3.024 1.399 6.05 1.776 8.733h.076c.529-2.798 1.248-5.634 2.042-8.81l3.365-12.855h3.365l-7.222 25.484h-3.441l-3.213-13.271c-.794-3.252-1.323-5.748-1.663-8.317h-.077c-.453 2.533-1.021 5.027-1.967 8.317l-3.629 13.271h-3.441zM104.793 19.706h-9.906v9.188h11.041v2.76h-14.33v-25.484h13.763v2.76h-10.474v8.054h9.906v2.722zM166.933 6.51c1.437-.303 3.705-.528 6.012-.528 3.289 0 5.407.566 6.995 1.853 1.323.983 2.117 2.496 2.117 4.5 0 2.457-1.626 4.612-4.311 5.597v.075c2.42.604 5.256 2.608 5.256 6.391 0 2.192-.869 3.855-2.155 5.104-1.777 1.626-4.65 2.382-8.81 2.382-2.269 0-4.009-.15-5.104-.302v-25.072zm3.289 10.435h2.987c3.479 0 5.521-1.814 5.521-4.272 0-2.986-2.269-4.158-5.597-4.158-1.512 0-2.382.112-2.911.227v8.203zm0 12.214c.643.113 1.588.15 2.761.15 3.402 0 6.541-1.247 6.541-4.953 0-3.479-2.987-4.915-6.579-4.915h-2.723v9.718z" />
    <path fill="white" d="M247.069 3.296v37.813h-2.533v-37.813h2.533z" />
    <path fill="white" d="M314.046 23.639l-2.646 8.016h-3.402l8.658-25.484h3.971l8.695 25.484h-3.518l-2.721-8.016h-9.037zm8.356-2.572l-2.496-7.336c-.566-1.663-.945-3.176-1.322-4.65h-.076c-.377 1.513-.793 3.063-1.285 4.613l-2.496 7.373h7.675zM389.798 6.51c1.662-.34 4.045-.528 6.314-.528 3.516 0 5.783.643 7.373 2.08 1.283 1.134 2.004 2.873 2.004 4.84 0 3.364-2.117 5.596-4.803 6.503v.113c1.967.681 3.139 2.496 3.742 5.143.832 3.555 1.438 6.012 1.967 6.995h-3.402c-.416-.719-.982-2.911-1.701-6.088-.756-3.518-2.117-4.84-5.105-4.953h-3.1v11.041h-3.289v-25.146zm3.289 11.608h3.365c3.516 0 5.746-1.929 5.746-4.84 0-3.29-2.381-4.728-5.859-4.765-1.588 0-2.723.15-3.252.303v9.302zM472.052 8.968h-7.752v-2.798h18.869v2.798h-7.789v22.688h-3.328v-22.688z" />
</svg>