<svg xmlns="http://www.w3.org/2000/svg" viewBox="0 347.578 1024 328.843" enable-background="new 0 347.578 1024 328.843"><path fill="#2A2525" d="M157.258 661.898l-9.932-39.146h5.344l4.647 19.806c1.161 4.878 2.207 9.758 2.904 13.532h.117c.637-3.891 1.857-8.539 3.193-13.591l5.227-19.746h5.284l4.763 19.863c1.104 4.646 2.147 9.293 2.729 13.416h.115c.813-4.298 1.917-8.654 3.137-13.533l5.169-19.746h5.169l-11.094 39.147h-5.284l-4.937-20.387c-1.22-4.995-2.032-8.829-2.556-12.775h-.115c-.697 3.891-1.568 7.723-3.02 12.775l-5.577 20.387h-5.283v-.002zm150.166-18.352h-15.216v14.113h16.959v4.239h-22.012v-39.146h21.141v4.239h-16.09v12.371h15.216v4.182l.002.002zm95.449-20.272c2.207-.467 5.691-.813 9.235-.813 5.052 0 8.306.87 10.743 2.846 2.032 1.511 3.252 3.834 3.252 6.912 0 3.774-2.496 7.085-6.621 8.598v.115c3.718.929 8.073 4.007 8.073 9.815 0 3.369-1.335 5.923-3.311 7.84-2.729 2.498-7.144 3.659-13.533 3.659-3.483 0-6.157-.231-7.84-.464l.002-38.508zm5.053 16.031h4.588c5.345 0 8.48-2.785 8.48-6.563 0-4.588-3.485-6.389-8.598-6.389-2.322 0-3.658.174-4.472.35l.002 12.602zm0 18.761c.987.173 2.438.229 4.24.229 5.227 0 10.048-1.916 10.048-7.607 0-5.345-4.588-7.551-10.104-7.551h-4.184v14.929z"/><path fill="#ADD056" d="M525.969 618.339v58.082h-3.891v-58.082h3.891z"/><path fill="#2A2525" d="M628.85 649.585l-4.063 12.313h-5.229l13.302-39.146h6.098l13.358 39.146h-5.402l-4.182-12.313h-13.882zm12.836-3.949l-3.834-11.269c-.868-2.554-1.451-4.878-2.031-7.144h-.115c-.581 2.324-1.22 4.705-1.977 7.087l-3.831 11.324 11.788.002zm103.524-22.362c2.555-.522 6.215-.813 9.699-.813 5.401 0 8.886.987 11.325 3.194 1.974 1.742 3.077 4.413 3.077 7.435 0 5.168-3.252 8.596-7.376 9.989v.174c3.021 1.046 4.82 3.834 5.749 7.899 1.278 5.461 2.208 9.234 3.021 10.745h-5.229c-.638-1.104-1.509-4.473-2.612-9.353-1.161-5.402-3.251-7.435-7.84-7.607h-4.765v16.96h-5.052l.003-38.623zm5.053 17.832h5.169c5.402 0 8.827-2.964 8.827-7.436 0-5.054-3.659-7.261-9.001-7.318-2.438 0-4.183.23-4.995.465v14.289zm121.295-14.056h-11.908v-4.298h28.981v4.298h-11.965v34.85h-5.11l.002-34.85z"/><path fill="#FDD041" d="M12.911 477.778c8.608-12.195 19.728-21.161 33.357-26.901l-26.542-15.064c7.65-6.217 16.258-11.118 25.826-14.705 9.563-3.588 19.728-5.382 30.488-5.382 11.712 0 22.894 2.035 33.535 6.099 10.639 4.067 20.026 9.747 28.156 17.038 8.127 7.297 14.645 15.962 19.549 26.005 4.898 10.042 7.353 20.927 7.353 32.64v96.124h-90.39c-10.282 0-19.906-1.971-28.874-5.919-8.966-3.944-16.801-9.263-23.492-15.961-6.697-6.69-12.015-14.526-15.963-23.493-3.943-8.968-5.914-18.591-5.914-28.873 0-15.544 4.303-29.414 12.911-41.608z"/><path fill="#E75C43" d="M195.113 468.703c4.064-10.261 9.803-19.33 17.218-27.202 7.408-7.876 16.196-14.258 26.362-19.152 10.161-4.892 21.218-7.341 33.179-7.341 10.76 0 21.281 2.09 31.563 6.267 10.277 4.182 19.488 10.323 27.617 18.434l-12.553 12.171c8.843 8.115 15.299 17.005 19.368 26.665 4.063 9.67 6.097 19.516 6.097 29.537 0 10.737-2.096 21.24-6.276 31.502-4.188 10.261-10.043 19.39-17.573 27.382-7.533 7.992-16.382 14.437-26.542 19.329-10.167 4.896-21.344 7.335-33.537 7.335-10.76 0-21.224-2.027-31.385-6.086-10.166-4.058-19.188-10.263-27.081-18.61l12.912-12.174c-8.849-8.107-15.304-17.06-19.368-26.844-4.068-9.787-6.097-19.689-6.097-29.716.001-10.739 2.028-21.235 6.096-31.497z"/><path fill="#3C3F4B" d="M369.785 347.578h72.451v74.963c9.563-4.539 19.487-6.815 29.771-6.815 9.327 0 18.17 1.794 26.542 5.382 8.367 3.587 15.658 8.488 21.88 14.705 6.215 6.221 11.119 13.513 14.704 21.879 3.589 8.372 5.383 17.217 5.383 26.541v109.396h-170.73l-.001-246.051z"/><path fill="#E75C43" d="M732.402 468.811c0 14.111-2.753 27.922-8.25 41.429-5.504 13.513-12.556 25.948-21.161 37.302-8.608 11.36-18.175 21.105-28.695 29.231-10.524 8.133-20.803 13.752-30.846 16.857-11.242-3.822-22.182-10.099-32.817-18.829-10.644-8.729-20.146-18.77-28.515-30.13-8.373-11.354-15.065-23.548-20.085-36.583-5.023-13.03-7.533-26.006-7.533-38.918v-53.444h177.904v53.085h-.002z"/><path fill="#3C3F4B" d="M754.993 369.1c1.911-4.306 4.483-8.07 7.713-11.298 3.229-3.227 7.051-5.738 11.479-7.533 4.421-1.795 9.146-2.691 14.166-2.691 5.022 0 9.741.896 14.169 2.689 4.423 1.794 8.248 4.306 11.479 7.533 3.229 3.228 5.795 6.994 7.712 11.298 1.911 4.303 2.869 8.966 2.869 13.986 0 7.416-2.033 14.049-6.099 19.907-4.066 5.861-9.323 10.104-15.779 12.731h21.878v177.903h-72.453v-177.9h21.522c-6.223-2.628-11.361-6.87-15.425-12.731-4.066-5.857-6.099-12.491-6.099-19.908-.001-5.02.953-9.684 2.868-13.986z"/><path fill="#FDD041" d="M846.455 504.678c0-12.194 2.332-23.728 6.996-34.611 4.661-10.879 10.994-20.32 19.008-28.336 8.01-8.009 17.452-14.348 28.336-19.01 10.877-4.662 22.418-6.995 34.612-6.995 11.713 0 22.893 2.035 33.536 6.099 10.637 4.067 20.022 9.747 28.154 17.038 8.126 7.297 14.645 15.962 19.549 26.005 4.898 10.042 7.354 20.927 7.354 32.64v96.124h-177.545v-88.954z"/><path fill="#fff" d="M96.959 562.632l-1.299-11.313h-.558c-5.008 7.049-14.653 13.354-27.451 13.354-18.178 0-27.454-12.799-27.454-25.783 0-21.703 19.292-33.572 53.979-33.388v-1.855c0-7.421-2.04-20.774-20.404-20.774-8.347 0-17.064 2.596-23.371 6.677l-3.711-10.76c7.419-4.823 18.178-7.979 29.494-7.979 27.453 0 34.13 18.735 34.13 36.729v33.574c0 7.791.372 15.396 1.485 21.517l-14.84.001zm-2.411-45.817c-17.809-.372-38.027 2.782-38.027 20.22 0 10.572 7.049 15.581 15.396 15.581 11.685 0 19.105-7.419 21.703-15.023.555-1.67.928-3.523.928-5.192v-15.586zm136.337 19.907c4.823 3.153 13.354 6.493 21.517 6.493 11.872 0 17.438-5.936 17.438-13.355 0-7.791-4.638-12.058-16.694-16.511-16.138-5.749-23.743-14.653-23.743-25.411 0-14.468 11.685-26.341 30.976-26.341 9.091 0 17.066 2.599 22.075 5.565l-4.081 11.872c-3.524-2.227-10.017-5.193-18.364-5.193-9.645 0-15.024 5.565-15.024 12.243 0 7.419 5.379 10.758 17.065 15.21 15.58 5.935 23.557 13.726 23.557 27.082 0 15.767-12.244 26.896-33.574 26.896-9.831 0-18.92-2.41-25.229-6.12l4.081-12.43zm181.026-105.789h16.322v56.02h.372c2.596-4.637 6.679-8.717 11.685-11.5 4.825-2.783 10.573-4.638 16.695-4.638 12.057 0 31.349 7.421 31.349 38.396v53.421h-16.324v-51.566c0-14.469-5.379-26.712-20.774-26.712-10.572 0-18.919 7.422-21.89 16.324-.928 2.227-1.112 4.639-1.112 7.791v54.163h-16.321l-.002-131.699zm201.388 32.704l17.622 50.454c2.969 8.161 5.379 15.582 7.234 23.001h.557c2.04-7.419 4.639-14.839 7.604-23.001l17.438-50.454h17.064l-35.242 89.778h-15.583l-34.13-89.778h17.436zm186.982-16.01c.186 5.564-3.896 10.017-10.39 10.017-5.749 0-9.829-4.451-9.829-10.017 0-5.75 4.267-10.203 10.202-10.203 6.122 0 10.017 4.453 10.017 10.203zm-18.177 115.005v-89.778h16.322v89.778h-16.322zm109.06-65.48c0-9.274-.186-16.881-.742-24.3h14.47l.929 14.841h.369c4.452-8.533 14.841-16.881 29.68-16.881 12.429 0 31.72 7.422 31.72 38.211v53.607h-16.324v-51.75c0-14.468-5.379-26.526-20.773-26.526-10.759 0-19.106 7.605-21.891 16.694-.739 2.041-1.112 4.823-1.112 7.605v53.979h-16.322v-65.479h-.004v-.001z"/></svg>