<svg xmlns="http://www.w3.org/2000/svg" viewBox="164.977 432.234 666.638 160.183" enable-background="new 164.977 432.234 666.638 160.183">
    <path fill="#FFF" d="M173.382 516.996c5.604-7.939 12.843-13.776 21.716-17.513l-17.279-9.808c4.98-4.046 10.584-7.238 16.813-9.573 6.225-2.335 12.843-3.503 19.848-3.503 7.625 0 14.904 1.325 21.832 3.97 6.926 2.648 13.037 6.345 18.33 11.092 5.291 4.75 9.534 10.391 12.727 16.929 3.189 6.538 4.787 13.624 4.787 21.249v62.578h-58.844c-6.694 0-12.959-1.283-18.797-3.853-5.837-2.568-10.938-6.03-15.294-10.391-4.36-4.356-7.822-9.457-10.392-15.294-2.568-5.838-3.852-12.103-3.852-18.797 0-10.117 2.8-19.147 8.405-27.086zM291.998 511.089c2.646-6.68 6.382-12.584 11.209-17.709 4.823-5.127 10.544-9.282 17.162-12.468 6.615-3.185 13.813-4.779 21.6-4.779 7.005 0 13.854 1.36 20.548 4.079 6.691 2.722 12.687 6.721 17.979 12l-8.172 7.924c5.757 5.283 9.96 11.07 12.609 17.359 2.645 6.295 3.969 12.705 3.969 19.229 0 6.99-1.364 13.828-4.086 20.508-2.726 6.68-6.538 12.623-11.441 17.826-4.904 5.203-10.665 9.398-17.279 12.584-6.619 3.186-13.895 4.775-21.833 4.775-7.005 0-13.817-1.32-20.432-3.962-6.618-2.642-12.492-6.681-17.63-12.116l8.406-7.925c-5.761-5.279-9.963-11.106-12.609-17.476-2.648-6.371-3.969-12.818-3.969-19.345 0-6.99 1.321-13.823 3.969-20.504zM405.712 432.234h47.167v48.802c6.225-2.955 12.687-4.437 19.381-4.437 6.072 0 11.829 1.168 17.279 3.503 5.447 2.335 10.194 5.527 14.244 9.573 4.046 4.05 7.239 8.797 9.573 14.244 2.336 5.45 3.504 11.208 3.504 17.278v71.219h-111.148v-160.182zM641.78 511.158c0 9.187-1.792 18.177-5.371 26.97-3.583 8.797-8.173 16.893-13.776 24.284-5.604 7.396-11.832 13.74-18.681 19.03-6.852 5.295-13.543 8.953-20.081 10.975-7.319-2.488-14.44-6.574-21.365-12.258-6.929-5.682-13.116-12.219-18.563-19.615-5.451-7.392-9.808-15.33-13.076-23.816-3.27-8.483-4.904-16.93-4.904-25.336v-34.792h115.817v34.558zM656.487 446.245c1.244-2.803 2.919-5.254 5.021-7.355s4.59-3.736 7.473-4.904c2.878-1.168 5.954-1.751 9.223-1.751 3.27 0 6.342.583 9.224 1.751 2.879 1.168 5.37 2.803 7.472 4.904s3.773 4.553 5.021 7.355c1.244 2.801 1.868 5.837 1.868 9.105 0 4.828-1.324 9.146-3.97 12.96-2.648 3.816-6.07 6.578-10.273 8.289h14.243v115.817h-47.168v-115.816h14.011c-4.05-1.711-7.396-4.473-10.041-8.289-2.648-3.813-3.97-8.132-3.97-12.96-.002-3.269.619-6.305 1.866-9.106zM716.03 534.509c0-7.939 1.518-15.447 4.554-22.533 3.035-7.082 7.158-13.229 12.375-18.447 5.214-5.213 11.361-9.34 18.447-12.375 7.081-3.035 14.594-4.554 22.533-4.554 7.625 0 14.903 1.325 21.832 3.97 6.925 2.648 13.036 6.345 18.33 11.092 5.29 4.75 9.533 10.391 12.726 16.929 3.189 6.538 4.787 13.624 4.787 21.249v62.578h-115.584v-57.909z" />
    <path fill="rgb(239, 94, 101)" d="M215.659 573.687c-2.979 0-5.817-.384-8.513-1.147-2.698-.764-5.092-1.911-7.185-3.441-2.095-1.528-3.764-3.42-5.011-5.676-1.249-2.252-1.872-4.869-1.872-7.849v-.241c0-3.14.702-5.917 2.108-8.332 1.405-2.415 3.313-4.426 5.722-6.037 2.408-1.609 5.24-2.817 8.493-3.623 3.252-.804 6.766-1.207 10.539-1.207 4.257 0 8.332.343 12.227 1.025 3.894.686 7.368 1.591 10.42 2.717v-5.071c0-7.324-2.034-12.739-6.098-16.241-4.066-3.502-9.641-5.252-16.724-5.252-3.785 0-7.287.463-10.505 1.389-3.221.926-6.4 2.154-9.54 3.682l-.966-2.173c3.381-1.609 6.762-2.897 10.143-3.864 3.381-.966 7.043-1.449 10.988-1.449 8.453 0 14.893 2.214 19.321 6.641 1.851 1.853 3.32 4.227 4.407 7.124 1.087 2.898 1.63 6.24 1.63 10.023v37.554h-2.657l.121-14.249c-.645 1.771-1.69 3.583-3.139 5.434-1.449 1.854-3.302 3.544-5.555 5.072-2.255 1.529-4.912 2.777-7.97 3.743-3.06.964-6.521 1.448-10.384 1.448zm.07-2.416c4.013 0 7.666-.604 10.958-1.812 3.292-1.208 6.123-2.796 8.493-4.77 2.368-1.972 4.194-4.227 5.479-6.763 1.285-2.535 1.928-5.132 1.928-7.788v-7.729c-3.211-1.208-6.625-2.152-10.237-2.837-3.615-.684-7.709-1.027-12.285-1.027-3.374 0-6.545.344-9.515 1.027-2.972.685-5.562 1.731-7.77 3.139-2.208 1.41-3.934 3.16-5.179 5.253-1.246 2.095-1.866 4.51-1.866 7.245v.242c0 2.656.542 4.971 1.626 6.943 1.083 1.973 2.549 3.622 4.396 4.95 1.845 1.329 3.974 2.315 6.383 2.958 2.407.649 4.938.969 7.589.969zM337.624 567.324c-4.268 0-8.555-.785-12.86-2.355-4.308-1.569-8.151-3.762-11.532-6.58l1.57-2.053c3.381 2.818 7.064 4.951 11.049 6.399 3.985 1.449 7.949 2.174 11.895 2.174 2.735 0 5.271-.321 7.607-.966 2.333-.644 4.347-1.57 6.038-2.777 1.69-1.208 3.019-2.637 3.985-4.287.966-1.648 1.449-3.441 1.449-5.373v-.242c0-2.334-.564-4.287-1.69-5.856-1.128-1.569-2.638-2.897-4.528-3.984-1.893-1.087-4.026-1.993-6.4-2.718-2.375-.725-4.77-1.448-7.185-2.173-3.061-.885-5.898-1.771-8.513-2.657-2.617-.885-4.851-1.932-6.702-3.139-1.853-1.208-3.302-2.637-4.347-4.287-1.047-1.648-1.57-3.684-1.57-6.098v-.242c0-2.092.502-4.063 1.509-5.916 1.006-1.852 2.415-3.481 4.227-4.891 1.811-1.407 4.024-2.515 6.641-3.321 2.615-.804 5.495-1.208 8.634-1.208 3.381 0 6.923.564 10.626 1.691 3.702 1.128 7.164 2.819 10.385 5.071l-1.449 2.174c-2.979-2.092-6.179-3.702-9.6-4.83-3.423-1.126-6.743-1.69-9.962-1.69-5.554 0-10.003 1.228-13.343 3.683-3.342 2.456-5.011 5.494-5.011 9.116v.242c0 2.014.501 3.725 1.509 5.132 1.005 1.409 2.394 2.638 4.166 3.683 1.77 1.048 3.804 1.975 6.098 2.777 2.294.807 4.77 1.57 7.427 2.295 2.977.806 5.796 1.672 8.453 2.596 2.656.927 4.97 2.014 6.943 3.261 1.972 1.249 3.521 2.777 4.649 4.589 1.126 1.811 1.69 4.006 1.69 6.58v.242c0 2.336-.543 4.488-1.63 6.461-1.086 1.973-2.617 3.664-4.588 5.07-1.974 1.41-4.287 2.496-6.943 3.261s-5.557 1.146-8.697 1.146zM435.551 484.088h2.657v44.316c.481-1.852 1.343-3.822 2.588-5.917 1.246-2.093 2.872-4.046 4.879-5.856 2.007-1.812 4.396-3.301 7.167-4.468 2.77-1.166 5.962-1.75 9.578-1.75 4.094 0 7.709.664 10.841 1.992 3.132 1.328 5.76 3.2 7.888 5.615s3.755 5.313 4.879 8.693c1.125 3.382 1.687 7.166 1.687 11.352v34.173h-2.656v-33.932c0-3.782-.481-7.245-1.441-10.385-.962-3.14-2.404-5.815-4.325-8.03-1.922-2.213-4.326-3.943-7.209-5.191-2.883-1.248-6.207-1.872-9.969-1.872-3.366 0-6.489.664-9.372 1.992-2.883 1.328-5.406 3.181-7.568 5.555-2.162 2.376-3.864 5.132-5.105 8.271-1.242 3.14-1.862 6.521-1.862 10.144v33.448h-2.657v-88.15zM556.271 505.861h2.777l26.204 57.719 26.083-57.719h2.656l-27.773 60.86h-1.932l-28.015-60.86zM676.672 487.71h3.864v6.883h-3.864v-6.883zm.603 24.151h2.656v60.376h-2.656v-60.376zM747.551 511.861h2.657v16.543c.481-1.852 1.343-3.822 2.589-5.917 1.245-2.093 2.871-4.046 4.879-5.856 2.008-1.812 4.396-3.301 7.168-4.468 2.77-1.166 5.962-1.75 9.577-1.75 4.095 0 7.709.664 10.841 1.992 3.133 1.328 5.761 3.2 7.889 5.615 2.129 2.415 3.755 5.313 4.879 8.693 1.125 3.382 1.688 7.166 1.688 11.352v34.173h-2.656v-33.932c0-3.782-.482-7.245-1.441-10.385-.963-3.14-2.404-5.815-4.325-8.03-1.923-2.213-4.326-3.943-7.21-5.191-2.883-1.248-6.207-1.872-9.969-1.872-3.366 0-6.488.664-9.371 1.992-2.884 1.328-5.406 3.181-7.568 5.555-2.162 2.376-3.864 5.132-5.105 8.271-1.242 3.14-1.862 6.521-1.862 10.144v33.448h-2.657v-60.377z" />
</svg>