<svg xmlns="http://www.w3.org/2000/svg" xmlns:xlink="http://www.w3.org/1999/xlink" width="549.696" height="594.01" viewBox="0 0 549.696 594.01">
    <g>
        <defs>
            <rect id="a" width="549.696" height="594.01" />
        </defs>
        <clipPath id="b">
            <use xlink:href="#a" overflow="visible" />
        </clipPath>
        <path clip-path="url(#b)" fill="#EF5E65" d="M285.86,369.004c-3.416,0.086-6.212,0.795-5.908,5.104
            c0.958,4.08,1.691,8.666,7.079,8.563c2.947-0.053,6.565-1.361,6.012-5.419C292.491,373.234,291.584,368.855,285.86,369.004" />
        <path clip-path="url(#b)" fill="#EF5E65" d="M525.146,164.075c-16.375-33.533-38.135-62.463-65.273-86.827
            c-27.147-24.346-58.491-43.304-94.013-56.887C330.328,6.797,292.993,0,253.887,0c-35.929,0-69.871,5.992-101.796,17.967
            c-31.945,11.976-60.685,28.349-86.23,49.1l88.623,50.3c-45.508,19.162-82.631,49.1-111.377,89.821
            C14.363,247.902,0,294.22,0,346.113c0,34.332,6.58,66.462,19.753,96.406c13.177,29.936,30.934,56.097,53.296,78.439
            c22.344,22.362,48.504,40.119,78.441,53.292c29.94,13.178,62.071,19.759,96.405,19.759h301.8V273.056
            C549.695,233.948,541.503,197.606,525.146,164.075 M469.202,333.605c-0.364,19.262-20.862,47.287-39.53,54.646
            c-15.929,6.278-32.555,7.484-49.337,6.627c-9.654-0.498-18.911-0.316-30.655,5.664c28.966-0.354,44.856,15.04,57.508,35.432
            c6.6,10.638,13.478,21.112,20.388,31.555c7.26,10.97,5.328,15.316-7.96,17.339c-37.347,5.701-66.933-14.518-75.382-51.669
            c-1.017-4.472-3.546-10.366,0.342-13.365c4.909-3.783,9.342,1.638,13.854,3.923c8.123,4.119,12.903,14.927,25.391,12.962
            c-14.128-18.968-31.009-30.635-54.355-31.213c-20.033-0.5-39.207,4.452-58.457,8.888c-5.077,1.166-10.489,4.027-14.727-0.332
            c-4.731-4.866-1.836-10.8-0.141-16.278c1.238-4.008,4.903-5.18,8.041-6.957c3.714-2.104,8.187-4.184,4.326-9.344
            c-3.863-5.157-8.941-5.35-13.352-0.728c-2.827,2.963-4.944,6.667-7.063,10.229c-14.4,24.188-28.208,48.752-43.222,72.557
            c-12.371,19.617-28.248,36.032-49.543,46.507c-2.893,1.42-5.69,3.592-8.619,2.113c-3.898-1.963-1.084-5.436-0.665-8.266
            c0.374-2.516,29.304-50.009,23.041-53.416c-6.423-2.53-40.228,60.834-48.903,67.109c-4.116,2.977-10.605,7.91-15.624,3.032
            c-4.529-4.405,0.861-9.468,3.14-13.881c24.668-47.709,54.443-92.653,76.775-141.611c2.733-5.993,6.541-8.066,12.605-9.78
            c33.737-9.532,64.288-24.307,84.939-55.156c-8.676-1.45-13.766,4.407-18.348,8.574c-9.559,8.687-28.153,19.211-37.398,24.21
            c-3.367,1.822,2.7-17.566-0.723-15.658c-3.133,1.748-6.836,18.893-10.918,20.688c-8.924,3.922-26.731,8.879-37.478,11.135
            c-5.424,1.142-12.378,4.848-16.349-0.066c-3.778-4.669,0.72-10.949,2.789-16.055c20.879-51.466,43.35-101.739,89.141-137.317
            c14.579-11.327,13.072-16.183-3.352-25.024c-5.725-3.083-13.705-8.091-6.865-13.636c17.675-14.336,29.209-32.487,40.068-51.81
            c2.288-4.074,9.788-5.556,15.147-7.513c31.867-11.637,67.395-9.058,98.162-25.389c5.412-2.868,8.96,0.727,8.338,7.046
            c-1.68,17.053-5.433,33.557-20.966,43.437c-8.433,5.364-7.239,8.411-1.671,15.315c19.652,24.377,34.364,51.622,36.898,83.324
            c5.076,63.462-32.02,116.591-94.873,138.882c-4.412,1.563-13.278-1.854-12.563,9.569c0.715,11.332,8.194,11.667,15.591,13.388
            c13.554,3.151,26.6-3.357,40.204-2.035c22.73,2.21,41.397-7.573,58.355-22.954c-14.086,3.336-27.314,10.817-42.336,12.115
            c-3.828,0.328-8.676,3.646-11.02-1.431c-1.722-3.738,2.332-6.611,4.752-9.144c2.504-2.611,5.407-5.079,8.586-6.764
            c24.076-12.786,49.557-21.777,76.049-28.188C470.39,322.677,469.299,328.486,469.202,333.605" />
        <path clip-path="url(#b)" fill-rule="evenodd" clip-rule="evenodd" fill="#EF5E65" d="M282.731,156.098
            c4.926-0.572,9.435,0.228,13.992,1.336c4.565,1.105,8.445-0.902,11.135-5.231l-1.372-4.396l-0.002-0.013l-1.372-4.394
            c-4.684-2.029-9.011-1.466-12.138,2.035c-3.118,3.511-6.312,6.81-10.694,9.144c-0.342-0.507-0.954-0.767-1.626-0.613
            c-0.668,0.148-1.156,1.023-0.926,1.765l2.244-0.698l0.455-0.145l8.804-2.746c-0.007-0.489,0.308-0.942,0.793-1.094l9.103-2.847
            c0.59-0.186,1.225,0.152,1.411,0.745c0.012,0.029,0.018,0.052,0.021,0.082c0.01,0.021,0.019,0.054,0.035,0.08
            c0.181,0.588-0.152,1.229-0.749,1.41l-9.098,2.847c-0.481,0.152-1.002-0.04-1.274-0.449l-8.805,2.754l-0.452,0.143l-2.241,0.7
            c0.235,0.747,1.146,1.149,1.763,0.93C282.37,157.222,282.677,156.754,282.731,156.098" />
    </g>
</svg>